<svg xmlns="http://www.w3.org/2000/svg" width="760" height="460" viewBox="0 0 760 460">
<rect width="100%" height="100%" fill="white"/>
<text x="380" y="28" text-anchor="middle" font-size="20" font-family="Helvetica">Throughput Change vs Plaintext</text>
<line x1="90" y1="54.00" x2="720" y2="54.00" stroke="#333" stroke-width="2"/>
<line x1="90" y1="54" x2="90" y2="380" stroke="#333" stroke-width="2"/>
<line x1="90" y1="380.00" x2="720" y2="380.00" stroke="#e0e0e0" stroke-width="1"/>
<text x="80" y="384.00" text-anchor="end" font-size="12" font-family="Helvetica">-0.02</text>
<line x1="90" y1="298.50" x2="720" y2="298.50" stroke="#e0e0e0" stroke-width="1"/>
<text x="80" y="302.50" text-anchor="end" font-size="12" font-family="Helvetica">-0.01</text>
<line x1="90" y1="217.00" x2="720" y2="217.00" stroke="#e0e0e0" stroke-width="1"/>
<text x="80" y="221.00" text-anchor="end" font-size="12" font-family="Helvetica">-0.01</text>
<line x1="90" y1="135.50" x2="720" y2="135.50" stroke="#e0e0e0" stroke-width="1"/>
<text x="80" y="139.50" text-anchor="end" font-size="12" font-family="Helvetica">-0.00</text>
<line x1="90" y1="54.00" x2="720" y2="54.00" stroke="#e0e0e0" stroke-width="1"/>
<text x="80" y="58.00" text-anchor="end" font-size="12" font-family="Helvetica">0.00</text>
<rect x="245.00" y="54.00" width="110" height="38.36" fill="#1565c0"/>
<text x="300.00" y="110.36" text-anchor="middle" font-size="13" font-family="Helvetica">-0.00%</text>
<text x="300.00" y="418" text-anchor="middle" font-size="15" font-family="Helvetica">TLS</text>
<rect x="455.00" y="54.00" width="110" height="326.00" fill="#c62828"/>
<text x="510.00" y="398.00" text-anchor="middle" font-size="13" font-family="Helvetica">-0.02%</text>
<text x="510.00" y="418" text-anchor="middle" font-size="15" font-family="Helvetica">MTLS</text>
<text x="22" y="230" text-anchor="middle" font-size="14" font-family="Helvetica" transform="rotate(-90 22,230)">% change vs plaintext</text>
</svg>
