<svg xmlns="http://www.w3.org/2000/svg" width="900" height="520" viewBox="0 0 900 520">
<rect width="100%" height="100%" fill="white"/>
<text x="450" y="24" text-anchor="middle" font-size="20" font-family="Helvetica">Mean Throughput (records/sec)</text>
<line x1="90" y1="430" x2="870" y2="430" stroke="#333" stroke-width="2"/>
<line x1="90" y1="40" x2="90" y2="430" stroke="#333" stroke-width="2"/>
<line x1="90" y1="430.00" x2="870" y2="430.00" stroke="#e0e0e0" stroke-width="1"/>
<text x="80" y="434.00" text-anchor="end" font-size="12" font-family="Helvetica">999.66</text>
<line x1="90" y1="332.50" x2="870" y2="332.50" stroke="#e0e0e0" stroke-width="1"/>
<text x="80" y="336.50" text-anchor="end" font-size="12" font-family="Helvetica">999.69</text>
<line x1="90" y1="235.00" x2="870" y2="235.00" stroke="#e0e0e0" stroke-width="1"/>
<text x="80" y="239.00" text-anchor="end" font-size="12" font-family="Helvetica">999.72</text>
<line x1="90" y1="137.50" x2="870" y2="137.50" stroke="#e0e0e0" stroke-width="1"/>
<text x="80" y="141.50" text-anchor="end" font-size="12" font-family="Helvetica">999.74</text>
<line x1="90" y1="40.00" x2="870" y2="40.00" stroke="#e0e0e0" stroke-width="1"/>
<text x="80" y="44.00" text-anchor="end" font-size="12" font-family="Helvetica">999.77</text>
<polyline fill="none" stroke="#1565c0" stroke-width="3" points="90.00,40.00 480.00,291.62 870.00,430.00"/>
<line x1="90.00" y1="216.14" x2="90.00" y2="-123.57" stroke="#90caf9" stroke-width="2"/>
<circle cx="90.00" cy="40.00" r="4" fill="#0d47a1"/>
<text x="90.00" y="452" text-anchor="middle" font-size="12" font-family="Helvetica" transform="rotate(35 90.00,452)">1024</text>
<line x1="480.00" y1="404.84" x2="480.00" y2="102.91" stroke="#90caf9" stroke-width="2"/>
<circle cx="480.00" cy="291.62" r="4" fill="#0d47a1"/>
<text x="480.00" y="452" text-anchor="middle" font-size="12" font-family="Helvetica" transform="rotate(35 480.00,452)">10240</text>
<line x1="870.00" y1="518.05" x2="870.00" y2="367.11" stroke="#90caf9" stroke-width="2"/>
<circle cx="870.00" cy="430.00" r="4" fill="#0d47a1"/>
<text x="870.00" y="452" text-anchor="middle" font-size="12" font-family="Helvetica" transform="rotate(35 870.00,452)">102400</text>
<text x="450" y="500" text-anchor="middle" font-size="14" font-family="Helvetica">Sweep category</text>
<text x="20" y="260" text-anchor="middle" font-size="14" font-family="Helvetica" transform="rotate(-90 20,260)">Mean Throughput (records/sec)</text>
</svg>
