<svg xmlns="http://www.w3.org/2000/svg" width="900" height="520" viewBox="0 0 900 520">
<rect width="100%" height="100%" fill="white"/>
<text x="450" y="24" text-anchor="middle" font-size="20" font-family="Helvetica">Mean Average Latency (ms)</text>
<line x1="90" y1="430" x2="870" y2="430" stroke="#333" stroke-width="2"/>
<line x1="90" y1="40" x2="90" y2="430" stroke="#333" stroke-width="2"/>
<line x1="90" y1="430.00" x2="870" y2="430.00" stroke="#e0e0e0" stroke-width="1"/>
<text x="80" y="434.00" text-anchor="end" font-size="12" font-family="Helvetica">3.77</text>
<line x1="90" y1="332.50" x2="870" y2="332.50" stroke="#e0e0e0" stroke-width="1"/>
<text x="80" y="336.50" text-anchor="end" font-size="12" font-family="Helvetica">23.21</text>
<line x1="90" y1="235.00" x2="870" y2="235.00" stroke="#e0e0e0" stroke-width="1"/>
<text x="80" y="239.00" text-anchor="end" font-size="12" font-family="Helvetica">42.66</text>
<line x1="90" y1="137.50" x2="870" y2="137.50" stroke="#e0e0e0" stroke-width="1"/>
<text x="80" y="141.50" text-anchor="end" font-size="12" font-family="Helvetica">62.10</text>
<line x1="90" y1="40.00" x2="870" y2="40.00" stroke="#e0e0e0" stroke-width="1"/>
<text x="80" y="44.00" text-anchor="end" font-size="12" font-family="Helvetica">81.55</text>
<polyline fill="none" stroke="#1565c0" stroke-width="3" points="90.00,428.65 97.88,428.14 105.76,427.79 113.64,428.14 121.52,428.60 129.39,428.14 137.27,261.16 145.15,233.94 153.03,242.16 160.91,282.45 168.79,269.96 176.67,250.82 184.55,386.42 192.42,387.13 200.30,388.75 208.18,390.51 216.06,388.01 223.94,384.30 231.82,423.28 239.70,423.93 247.58,423.38 255.45,423.73 263.33,424.33 271.21,423.53 279.09,381.66 286.97,385.32 294.85,387.54 302.73,381.52 310.61,428.50 318.48,428.60 326.36,428.30 334.24,428.95 342.12,428.80 350.00,428.70 357.88,76.15 365.76,109.76 373.64,79.61 381.52,123.22 389.39,110.12 397.27,113.69 405.15,359.81 413.03,355.83 420.91,345.23 428.79,366.44 436.67,362.77 444.55,358.84 452.42,424.38 460.30,424.84 468.18,424.38 476.06,424.68 483.94,425.24 491.82,424.84 499.70,40.00 507.58,61.93 515.45,46.37 523.33,73.98 531.21,90.80 539.09,77.26 546.97,344.15 554.85,334.11 562.73,351.62 570.61,355.98 578.48,353.18 586.36,350.55 594.24,428.80 602.12,429.55 610.00,427.64 617.88,430.00 625.76,429.70 633.64,429.65 641.52,199.72 649.39,212.82 657.27,193.73 665.15,211.35 673.03,213.46 680.91,205.86 688.79,365.10 696.67,362.88 704.55,377.62 712.42,385.72 720.30,378.13 728.18,379.55 736.06,422.18 743.94,422.03 751.82,422.63 759.70,422.78 767.58,421.98 775.45,422.43 783.33,160.37 791.21,170.15 799.09,167.80 806.97,180.82 814.85,197.45 822.73,208.54 830.61,364.18 838.48,371.74 846.36,365.89 854.24,363.63 862.12,372.14 870.00,373.67"/>
<line x1="90.00" y1="428.65" x2="90.00" y2="428.65" stroke="#90caf9" stroke-width="2"/>
<circle cx="90.00" cy="428.65" r="4" fill="#0d47a1"/>
<text x="90.00" y="452" text-anchor="middle" font-size="12" font-family="Helvetica" transform="rotate(35 90.00,452)">plaintext-requested-full-factorial-b5-rf3-isr3-msg1024-tps1000-batch131072-acks1-prod1-complz4-trial1</text>
<line x1="97.88" y1="428.14" x2="97.88" y2="428.14" stroke="#90caf9" stroke-width="2"/>
<circle cx="97.88" cy="428.14" r="4" fill="#0d47a1"/>
<text x="97.88" y="452" text-anchor="middle" font-size="12" font-family="Helvetica" transform="rotate(35 97.88,452)">plaintext-requested-full-factorial-b5-rf3-isr3-msg1024-tps1000-batch131072-acks1-prod1-complz4-trial2</text>
<line x1="105.76" y1="427.79" x2="105.76" y2="427.79" stroke="#90caf9" stroke-width="2"/>
<circle cx="105.76" cy="427.79" r="4" fill="#0d47a1"/>
<text x="105.76" y="452" text-anchor="middle" font-size="12" font-family="Helvetica" transform="rotate(35 105.76,452)">plaintext-requested-full-factorial-b5-rf3-isr3-msg1024-tps1000-batch131072-acks1-prod1-complz4-trial3</text>
<line x1="113.64" y1="428.14" x2="113.64" y2="428.14" stroke="#90caf9" stroke-width="2"/>
<circle cx="113.64" cy="428.14" r="4" fill="#0d47a1"/>
<text x="113.64" y="452" text-anchor="middle" font-size="12" font-family="Helvetica" transform="rotate(35 113.64,452)">plaintext-requested-full-factorial-b5-rf3-isr3-msg1024-tps1000-batch131072-acks1-prod1-compnone-trial1</text>
<line x1="121.52" y1="428.60" x2="121.52" y2="428.60" stroke="#90caf9" stroke-width="2"/>
<circle cx="121.52" cy="428.60" r="4" fill="#0d47a1"/>
<text x="121.52" y="452" text-anchor="middle" font-size="12" font-family="Helvetica" transform="rotate(35 121.52,452)">plaintext-requested-full-factorial-b5-rf3-isr3-msg1024-tps1000-batch131072-acks1-prod1-compnone-trial2</text>
<line x1="129.39" y1="428.14" x2="129.39" y2="428.14" stroke="#90caf9" stroke-width="2"/>
<circle cx="129.39" cy="428.14" r="4" fill="#0d47a1"/>
<text x="129.39" y="452" text-anchor="middle" font-size="12" font-family="Helvetica" transform="rotate(35 129.39,452)">plaintext-requested-full-factorial-b5-rf3-isr3-msg1024-tps1000-batch131072-acks1-prod1-compnone-trial3</text>
<line x1="137.27" y1="261.16" x2="137.27" y2="261.16" stroke="#90caf9" stroke-width="2"/>
<circle cx="137.27" cy="261.16" r="4" fill="#0d47a1"/>
<text x="137.27" y="452" text-anchor="middle" font-size="12" font-family="Helvetica" transform="rotate(35 137.27,452)">plaintext-requested-full-factorial-b5-rf3-isr3-msg1024-tps1000-batch131072-acks1-prod12-complz4-trial1</text>
<line x1="145.15" y1="233.94" x2="145.15" y2="233.94" stroke="#90caf9" stroke-width="2"/>
<circle cx="145.15" cy="233.94" r="4" fill="#0d47a1"/>
<text x="145.15" y="452" text-anchor="middle" font-size="12" font-family="Helvetica" transform="rotate(35 145.15,452)">plaintext-requested-full-factorial-b5-rf3-isr3-msg1024-tps1000-batch131072-acks1-prod12-complz4-trial2</text>
<line x1="153.03" y1="242.16" x2="153.03" y2="242.16" stroke="#90caf9" stroke-width="2"/>
<circle cx="153.03" cy="242.16" r="4" fill="#0d47a1"/>
<text x="153.03" y="452" text-anchor="middle" font-size="12" font-family="Helvetica" transform="rotate(35 153.03,452)">plaintext-requested-full-factorial-b5-rf3-isr3-msg1024-tps1000-batch131072-acks1-prod12-complz4-trial3</text>
<line x1="160.91" y1="282.45" x2="160.91" y2="282.45" stroke="#90caf9" stroke-width="2"/>
<circle cx="160.91" cy="282.45" r="4" fill="#0d47a1"/>
<text x="160.91" y="452" text-anchor="middle" font-size="12" font-family="Helvetica" transform="rotate(35 160.91,452)">plaintext-requested-full-factorial-b5-rf3-isr3-msg1024-tps1000-batch131072-acks1-prod12-compnone-trial1</text>
<line x1="168.79" y1="269.96" x2="168.79" y2="269.96" stroke="#90caf9" stroke-width="2"/>
<circle cx="168.79" cy="269.96" r="4" fill="#0d47a1"/>
<text x="168.79" y="452" text-anchor="middle" font-size="12" font-family="Helvetica" transform="rotate(35 168.79,452)">plaintext-requested-full-factorial-b5-rf3-isr3-msg1024-tps1000-batch131072-acks1-prod12-compnone-trial2</text>
<line x1="176.67" y1="250.82" x2="176.67" y2="250.82" stroke="#90caf9" stroke-width="2"/>
<circle cx="176.67" cy="250.82" r="4" fill="#0d47a1"/>
<text x="176.67" y="452" text-anchor="middle" font-size="12" font-family="Helvetica" transform="rotate(35 176.67,452)">plaintext-requested-full-factorial-b5-rf3-isr3-msg1024-tps1000-batch131072-acks1-prod12-compnone-trial3</text>
<line x1="184.55" y1="386.42" x2="184.55" y2="386.42" stroke="#90caf9" stroke-width="2"/>
<circle cx="184.55" cy="386.42" r="4" fill="#0d47a1"/>
<text x="184.55" y="452" text-anchor="middle" font-size="12" font-family="Helvetica" transform="rotate(35 184.55,452)">plaintext-requested-full-factorial-b5-rf3-isr3-msg1024-tps1000-batch131072-acks1-prod6-complz4-trial1</text>
<line x1="192.42" y1="387.13" x2="192.42" y2="387.13" stroke="#90caf9" stroke-width="2"/>
<circle cx="192.42" cy="387.13" r="4" fill="#0d47a1"/>
<text x="192.42" y="452" text-anchor="middle" font-size="12" font-family="Helvetica" transform="rotate(35 192.42,452)">plaintext-requested-full-factorial-b5-rf3-isr3-msg1024-tps1000-batch131072-acks1-prod6-complz4-trial2</text>
<line x1="200.30" y1="388.75" x2="200.30" y2="388.75" stroke="#90caf9" stroke-width="2"/>
<circle cx="200.30" cy="388.75" r="4" fill="#0d47a1"/>
<text x="200.30" y="452" text-anchor="middle" font-size="12" font-family="Helvetica" transform="rotate(35 200.30,452)">plaintext-requested-full-factorial-b5-rf3-isr3-msg1024-tps1000-batch131072-acks1-prod6-complz4-trial3</text>
<line x1="208.18" y1="390.51" x2="208.18" y2="390.51" stroke="#90caf9" stroke-width="2"/>
<circle cx="208.18" cy="390.51" r="4" fill="#0d47a1"/>
<text x="208.18" y="452" text-anchor="middle" font-size="12" font-family="Helvetica" transform="rotate(35 208.18,452)">plaintext-requested-full-factorial-b5-rf3-isr3-msg1024-tps1000-batch131072-acks1-prod6-compnone-trial1</text>
<line x1="216.06" y1="388.01" x2="216.06" y2="388.01" stroke="#90caf9" stroke-width="2"/>
<circle cx="216.06" cy="388.01" r="4" fill="#0d47a1"/>
<text x="216.06" y="452" text-anchor="middle" font-size="12" font-family="Helvetica" transform="rotate(35 216.06,452)">plaintext-requested-full-factorial-b5-rf3-isr3-msg1024-tps1000-batch131072-acks1-prod6-compnone-trial2</text>
<line x1="223.94" y1="384.30" x2="223.94" y2="384.30" stroke="#90caf9" stroke-width="2"/>
<circle cx="223.94" cy="384.30" r="4" fill="#0d47a1"/>
<text x="223.94" y="452" text-anchor="middle" font-size="12" font-family="Helvetica" transform="rotate(35 223.94,452)">plaintext-requested-full-factorial-b5-rf3-isr3-msg1024-tps1000-batch131072-acks1-prod6-compnone-trial3</text>
<line x1="231.82" y1="423.28" x2="231.82" y2="423.28" stroke="#90caf9" stroke-width="2"/>
<circle cx="231.82" cy="423.28" r="4" fill="#0d47a1"/>
<text x="231.82" y="452" text-anchor="middle" font-size="12" font-family="Helvetica" transform="rotate(35 231.82,452)">plaintext-requested-full-factorial-b5-rf3-isr3-msg1024-tps1000-batch131072-acksall-prod1-complz4-trial1</text>
<line x1="239.70" y1="423.93" x2="239.70" y2="423.93" stroke="#90caf9" stroke-width="2"/>
<circle cx="239.70" cy="423.93" r="4" fill="#0d47a1"/>
<text x="239.70" y="452" text-anchor="middle" font-size="12" font-family="Helvetica" transform="rotate(35 239.70,452)">plaintext-requested-full-factorial-b5-rf3-isr3-msg1024-tps1000-batch131072-acksall-prod1-complz4-trial2</text>
<line x1="247.58" y1="423.38" x2="247.58" y2="423.38" stroke="#90caf9" stroke-width="2"/>
<circle cx="247.58" cy="423.38" r="4" fill="#0d47a1"/>
<text x="247.58" y="452" text-anchor="middle" font-size="12" font-family="Helvetica" transform="rotate(35 247.58,452)">plaintext-requested-full-factorial-b5-rf3-isr3-msg1024-tps1000-batch131072-acksall-prod1-complz4-trial3</text>
<line x1="255.45" y1="423.73" x2="255.45" y2="423.73" stroke="#90caf9" stroke-width="2"/>
<circle cx="255.45" cy="423.73" r="4" fill="#0d47a1"/>
<text x="255.45" y="452" text-anchor="middle" font-size="12" font-family="Helvetica" transform="rotate(35 255.45,452)">plaintext-requested-full-factorial-b5-rf3-isr3-msg1024-tps1000-batch131072-acksall-prod1-compnone-trial1</text>
<line x1="263.33" y1="424.33" x2="263.33" y2="424.33" stroke="#90caf9" stroke-width="2"/>
<circle cx="263.33" cy="424.33" r="4" fill="#0d47a1"/>
<text x="263.33" y="452" text-anchor="middle" font-size="12" font-family="Helvetica" transform="rotate(35 263.33,452)">plaintext-requested-full-factorial-b5-rf3-isr3-msg1024-tps1000-batch131072-acksall-prod1-compnone-trial2</text>
<line x1="271.21" y1="423.53" x2="271.21" y2="423.53" stroke="#90caf9" stroke-width="2"/>
<circle cx="271.21" cy="423.53" r="4" fill="#0d47a1"/>
<text x="271.21" y="452" text-anchor="middle" font-size="12" font-family="Helvetica" transform="rotate(35 271.21,452)">plaintext-requested-full-factorial-b5-rf3-isr3-msg1024-tps1000-batch131072-acksall-prod1-compnone-trial3</text>
<line x1="279.09" y1="381.66" x2="279.09" y2="381.66" stroke="#90caf9" stroke-width="2"/>
<circle cx="279.09" cy="381.66" r="4" fill="#0d47a1"/>
<text x="279.09" y="452" text-anchor="middle" font-size="12" font-family="Helvetica" transform="rotate(35 279.09,452)">plaintext-requested-full-factorial-b5-rf3-isr3-msg1024-tps1000-batch131072-acksall-prod6-complz4-trial1</text>
<line x1="286.97" y1="385.32" x2="286.97" y2="385.32" stroke="#90caf9" stroke-width="2"/>
<circle cx="286.97" cy="385.32" r="4" fill="#0d47a1"/>
<text x="286.97" y="452" text-anchor="middle" font-size="12" font-family="Helvetica" transform="rotate(35 286.97,452)">plaintext-requested-full-factorial-b5-rf3-isr3-msg1024-tps1000-batch131072-acksall-prod6-compnone-trial1</text>
<line x1="294.85" y1="387.54" x2="294.85" y2="387.54" stroke="#90caf9" stroke-width="2"/>
<circle cx="294.85" cy="387.54" r="4" fill="#0d47a1"/>
<text x="294.85" y="452" text-anchor="middle" font-size="12" font-family="Helvetica" transform="rotate(35 294.85,452)">plaintext-requested-full-factorial-b5-rf3-isr3-msg1024-tps1000-batch131072-acksall-prod6-compnone-trial2</text>
<line x1="302.73" y1="381.52" x2="302.73" y2="381.52" stroke="#90caf9" stroke-width="2"/>
<circle cx="302.73" cy="381.52" r="4" fill="#0d47a1"/>
<text x="302.73" y="452" text-anchor="middle" font-size="12" font-family="Helvetica" transform="rotate(35 302.73,452)">plaintext-requested-full-factorial-b5-rf3-isr3-msg1024-tps1000-batch131072-acksall-prod6-compnone-trial3</text>
<line x1="310.61" y1="428.50" x2="310.61" y2="428.50" stroke="#90caf9" stroke-width="2"/>
<circle cx="310.61" cy="428.50" r="4" fill="#0d47a1"/>
<text x="310.61" y="452" text-anchor="middle" font-size="12" font-family="Helvetica" transform="rotate(35 310.61,452)">plaintext-requested-full-factorial-b5-rf3-isr3-msg1024-tps1000-batch16384-acks1-prod1-complz4-trial1</text>
<line x1="318.48" y1="428.60" x2="318.48" y2="428.60" stroke="#90caf9" stroke-width="2"/>
<circle cx="318.48" cy="428.60" r="4" fill="#0d47a1"/>
<text x="318.48" y="452" text-anchor="middle" font-size="12" font-family="Helvetica" transform="rotate(35 318.48,452)">plaintext-requested-full-factorial-b5-rf3-isr3-msg1024-tps1000-batch16384-acks1-prod1-complz4-trial2</text>
<line x1="326.36" y1="428.30" x2="326.36" y2="428.30" stroke="#90caf9" stroke-width="2"/>
<circle cx="326.36" cy="428.30" r="4" fill="#0d47a1"/>
<text x="326.36" y="452" text-anchor="middle" font-size="12" font-family="Helvetica" transform="rotate(35 326.36,452)">plaintext-requested-full-factorial-b5-rf3-isr3-msg1024-tps1000-batch16384-acks1-prod1-complz4-trial3</text>
<line x1="334.24" y1="428.95" x2="334.24" y2="428.95" stroke="#90caf9" stroke-width="2"/>
<circle cx="334.24" cy="428.95" r="4" fill="#0d47a1"/>
<text x="334.24" y="452" text-anchor="middle" font-size="12" font-family="Helvetica" transform="rotate(35 334.24,452)">plaintext-requested-full-factorial-b5-rf3-isr3-msg1024-tps1000-batch16384-acks1-prod1-compnone-trial1</text>
<line x1="342.12" y1="428.80" x2="342.12" y2="428.80" stroke="#90caf9" stroke-width="2"/>
<circle cx="342.12" cy="428.80" r="4" fill="#0d47a1"/>
<text x="342.12" y="452" text-anchor="middle" font-size="12" font-family="Helvetica" transform="rotate(35 342.12,452)">plaintext-requested-full-factorial-b5-rf3-isr3-msg1024-tps1000-batch16384-acks1-prod1-compnone-trial2</text>
<line x1="350.00" y1="428.70" x2="350.00" y2="428.70" stroke="#90caf9" stroke-width="2"/>
<circle cx="350.00" cy="428.70" r="4" fill="#0d47a1"/>
<text x="350.00" y="452" text-anchor="middle" font-size="12" font-family="Helvetica" transform="rotate(35 350.00,452)">plaintext-requested-full-factorial-b5-rf3-isr3-msg1024-tps1000-batch16384-acks1-prod1-compnone-trial3</text>
<line x1="357.88" y1="76.15" x2="357.88" y2="76.15" stroke="#90caf9" stroke-width="2"/>
<circle cx="357.88" cy="76.15" r="4" fill="#0d47a1"/>
<text x="357.88" y="452" text-anchor="middle" font-size="12" font-family="Helvetica" transform="rotate(35 357.88,452)">plaintext-requested-full-factorial-b5-rf3-isr3-msg1024-tps1000-batch16384-acks1-prod12-complz4-trial1</text>
<line x1="365.76" y1="109.76" x2="365.76" y2="109.76" stroke="#90caf9" stroke-width="2"/>
<circle cx="365.76" cy="109.76" r="4" fill="#0d47a1"/>
<text x="365.76" y="452" text-anchor="middle" font-size="12" font-family="Helvetica" transform="rotate(35 365.76,452)">plaintext-requested-full-factorial-b5-rf3-isr3-msg1024-tps1000-batch16384-acks1-prod12-complz4-trial2</text>
<line x1="373.64" y1="79.61" x2="373.64" y2="79.61" stroke="#90caf9" stroke-width="2"/>
<circle cx="373.64" cy="79.61" r="4" fill="#0d47a1"/>
<text x="373.64" y="452" text-anchor="middle" font-size="12" font-family="Helvetica" transform="rotate(35 373.64,452)">plaintext-requested-full-factorial-b5-rf3-isr3-msg1024-tps1000-batch16384-acks1-prod12-complz4-trial3</text>
<line x1="381.52" y1="123.22" x2="381.52" y2="123.22" stroke="#90caf9" stroke-width="2"/>
<circle cx="381.52" cy="123.22" r="4" fill="#0d47a1"/>
<text x="381.52" y="452" text-anchor="middle" font-size="12" font-family="Helvetica" transform="rotate(35 381.52,452)">plaintext-requested-full-factorial-b5-rf3-isr3-msg1024-tps1000-batch16384-acks1-prod12-compnone-trial1</text>
<line x1="389.39" y1="110.12" x2="389.39" y2="110.12" stroke="#90caf9" stroke-width="2"/>
<circle cx="389.39" cy="110.12" r="4" fill="#0d47a1"/>
<text x="389.39" y="452" text-anchor="middle" font-size="12" font-family="Helvetica" transform="rotate(35 389.39,452)">plaintext-requested-full-factorial-b5-rf3-isr3-msg1024-tps1000-batch16384-acks1-prod12-compnone-trial2</text>
<line x1="397.27" y1="113.69" x2="397.27" y2="113.69" stroke="#90caf9" stroke-width="2"/>
<circle cx="397.27" cy="113.69" r="4" fill="#0d47a1"/>
<text x="397.27" y="452" text-anchor="middle" font-size="12" font-family="Helvetica" transform="rotate(35 397.27,452)">plaintext-requested-full-factorial-b5-rf3-isr3-msg1024-tps1000-batch16384-acks1-prod12-compnone-trial3</text>
<line x1="405.15" y1="359.81" x2="405.15" y2="359.81" stroke="#90caf9" stroke-width="2"/>
<circle cx="405.15" cy="359.81" r="4" fill="#0d47a1"/>
<text x="405.15" y="452" text-anchor="middle" font-size="12" font-family="Helvetica" transform="rotate(35 405.15,452)">plaintext-requested-full-factorial-b5-rf3-isr3-msg1024-tps1000-batch16384-acks1-prod6-complz4-trial1</text>
<line x1="413.03" y1="355.83" x2="413.03" y2="355.83" stroke="#90caf9" stroke-width="2"/>
<circle cx="413.03" cy="355.83" r="4" fill="#0d47a1"/>
<text x="413.03" y="452" text-anchor="middle" font-size="12" font-family="Helvetica" transform="rotate(35 413.03,452)">plaintext-requested-full-factorial-b5-rf3-isr3-msg1024-tps1000-batch16384-acks1-prod6-complz4-trial2</text>
<line x1="420.91" y1="345.23" x2="420.91" y2="345.23" stroke="#90caf9" stroke-width="2"/>
<circle cx="420.91" cy="345.23" r="4" fill="#0d47a1"/>
<text x="420.91" y="452" text-anchor="middle" font-size="12" font-family="Helvetica" transform="rotate(35 420.91,452)">plaintext-requested-full-factorial-b5-rf3-isr3-msg1024-tps1000-batch16384-acks1-prod6-complz4-trial3</text>
<line x1="428.79" y1="366.44" x2="428.79" y2="366.44" stroke="#90caf9" stroke-width="2"/>
<circle cx="428.79" cy="366.44" r="4" fill="#0d47a1"/>
<text x="428.79" y="452" text-anchor="middle" font-size="12" font-family="Helvetica" transform="rotate(35 428.79,452)">plaintext-requested-full-factorial-b5-rf3-isr3-msg1024-tps1000-batch16384-acks1-prod6-compnone-trial1</text>
<line x1="436.67" y1="362.77" x2="436.67" y2="362.77" stroke="#90caf9" stroke-width="2"/>
<circle cx="436.67" cy="362.77" r="4" fill="#0d47a1"/>
<text x="436.67" y="452" text-anchor="middle" font-size="12" font-family="Helvetica" transform="rotate(35 436.67,452)">plaintext-requested-full-factorial-b5-rf3-isr3-msg1024-tps1000-batch16384-acks1-prod6-compnone-trial2</text>
<line x1="444.55" y1="358.84" x2="444.55" y2="358.84" stroke="#90caf9" stroke-width="2"/>
<circle cx="444.55" cy="358.84" r="4" fill="#0d47a1"/>
<text x="444.55" y="452" text-anchor="middle" font-size="12" font-family="Helvetica" transform="rotate(35 444.55,452)">plaintext-requested-full-factorial-b5-rf3-isr3-msg1024-tps1000-batch16384-acks1-prod6-compnone-trial3</text>
<line x1="452.42" y1="424.38" x2="452.42" y2="424.38" stroke="#90caf9" stroke-width="2"/>
<circle cx="452.42" cy="424.38" r="4" fill="#0d47a1"/>
<text x="452.42" y="452" text-anchor="middle" font-size="12" font-family="Helvetica" transform="rotate(35 452.42,452)">plaintext-requested-full-factorial-b5-rf3-isr3-msg1024-tps1000-batch16384-acksall-prod1-complz4-trial1</text>
<line x1="460.30" y1="424.84" x2="460.30" y2="424.84" stroke="#90caf9" stroke-width="2"/>
<circle cx="460.30" cy="424.84" r="4" fill="#0d47a1"/>
<text x="460.30" y="452" text-anchor="middle" font-size="12" font-family="Helvetica" transform="rotate(35 460.30,452)">plaintext-requested-full-factorial-b5-rf3-isr3-msg1024-tps1000-batch16384-acksall-prod1-complz4-trial2</text>
<line x1="468.18" y1="424.38" x2="468.18" y2="424.38" stroke="#90caf9" stroke-width="2"/>
<circle cx="468.18" cy="424.38" r="4" fill="#0d47a1"/>
<text x="468.18" y="452" text-anchor="middle" font-size="12" font-family="Helvetica" transform="rotate(35 468.18,452)">plaintext-requested-full-factorial-b5-rf3-isr3-msg1024-tps1000-batch16384-acksall-prod1-complz4-trial3</text>
<line x1="476.06" y1="424.68" x2="476.06" y2="424.68" stroke="#90caf9" stroke-width="2"/>
<circle cx="476.06" cy="424.68" r="4" fill="#0d47a1"/>
<text x="476.06" y="452" text-anchor="middle" font-size="12" font-family="Helvetica" transform="rotate(35 476.06,452)">plaintext-requested-full-factorial-b5-rf3-isr3-msg1024-tps1000-batch16384-acksall-prod1-compnone-trial1</text>
<line x1="483.94" y1="425.24" x2="483.94" y2="425.24" stroke="#90caf9" stroke-width="2"/>
<circle cx="483.94" cy="425.24" r="4" fill="#0d47a1"/>
<text x="483.94" y="452" text-anchor="middle" font-size="12" font-family="Helvetica" transform="rotate(35 483.94,452)">plaintext-requested-full-factorial-b5-rf3-isr3-msg1024-tps1000-batch16384-acksall-prod1-compnone-trial2</text>
<line x1="491.82" y1="424.84" x2="491.82" y2="424.84" stroke="#90caf9" stroke-width="2"/>
<circle cx="491.82" cy="424.84" r="4" fill="#0d47a1"/>
<text x="491.82" y="452" text-anchor="middle" font-size="12" font-family="Helvetica" transform="rotate(35 491.82,452)">plaintext-requested-full-factorial-b5-rf3-isr3-msg1024-tps1000-batch16384-acksall-prod1-compnone-trial3</text>
<line x1="499.70" y1="40.00" x2="499.70" y2="40.00" stroke="#90caf9" stroke-width="2"/>
<circle cx="499.70" cy="40.00" r="4" fill="#0d47a1"/>
<text x="499.70" y="452" text-anchor="middle" font-size="12" font-family="Helvetica" transform="rotate(35 499.70,452)">plaintext-requested-full-factorial-b5-rf3-isr3-msg1024-tps1000-batch16384-acksall-prod12-complz4-trial1</text>
<line x1="507.58" y1="61.93" x2="507.58" y2="61.93" stroke="#90caf9" stroke-width="2"/>
<circle cx="507.58" cy="61.93" r="4" fill="#0d47a1"/>
<text x="507.58" y="452" text-anchor="middle" font-size="12" font-family="Helvetica" transform="rotate(35 507.58,452)">plaintext-requested-full-factorial-b5-rf3-isr3-msg1024-tps1000-batch16384-acksall-prod12-complz4-trial2</text>
<line x1="515.45" y1="46.37" x2="515.45" y2="46.37" stroke="#90caf9" stroke-width="2"/>
<circle cx="515.45" cy="46.37" r="4" fill="#0d47a1"/>
<text x="515.45" y="452" text-anchor="middle" font-size="12" font-family="Helvetica" transform="rotate(35 515.45,452)">plaintext-requested-full-factorial-b5-rf3-isr3-msg1024-tps1000-batch16384-acksall-prod12-complz4-trial3</text>
<line x1="523.33" y1="73.98" x2="523.33" y2="73.98" stroke="#90caf9" stroke-width="2"/>
<circle cx="523.33" cy="73.98" r="4" fill="#0d47a1"/>
<text x="523.33" y="452" text-anchor="middle" font-size="12" font-family="Helvetica" transform="rotate(35 523.33,452)">plaintext-requested-full-factorial-b5-rf3-isr3-msg1024-tps1000-batch16384-acksall-prod12-compnone-trial1</text>
<line x1="531.21" y1="90.80" x2="531.21" y2="90.80" stroke="#90caf9" stroke-width="2"/>
<circle cx="531.21" cy="90.80" r="4" fill="#0d47a1"/>
<text x="531.21" y="452" text-anchor="middle" font-size="12" font-family="Helvetica" transform="rotate(35 531.21,452)">plaintext-requested-full-factorial-b5-rf3-isr3-msg1024-tps1000-batch16384-acksall-prod12-compnone-trial2</text>
<line x1="539.09" y1="77.26" x2="539.09" y2="77.26" stroke="#90caf9" stroke-width="2"/>
<circle cx="539.09" cy="77.26" r="4" fill="#0d47a1"/>
<text x="539.09" y="452" text-anchor="middle" font-size="12" font-family="Helvetica" transform="rotate(35 539.09,452)">plaintext-requested-full-factorial-b5-rf3-isr3-msg1024-tps1000-batch16384-acksall-prod12-compnone-trial3</text>
<line x1="546.97" y1="344.15" x2="546.97" y2="344.15" stroke="#90caf9" stroke-width="2"/>
<circle cx="546.97" cy="344.15" r="4" fill="#0d47a1"/>
<text x="546.97" y="452" text-anchor="middle" font-size="12" font-family="Helvetica" transform="rotate(35 546.97,452)">plaintext-requested-full-factorial-b5-rf3-isr3-msg1024-tps1000-batch16384-acksall-prod6-complz4-trial1</text>
<line x1="554.85" y1="334.11" x2="554.85" y2="334.11" stroke="#90caf9" stroke-width="2"/>
<circle cx="554.85" cy="334.11" r="4" fill="#0d47a1"/>
<text x="554.85" y="452" text-anchor="middle" font-size="12" font-family="Helvetica" transform="rotate(35 554.85,452)">plaintext-requested-full-factorial-b5-rf3-isr3-msg1024-tps1000-batch16384-acksall-prod6-complz4-trial2</text>
<line x1="562.73" y1="351.62" x2="562.73" y2="351.62" stroke="#90caf9" stroke-width="2"/>
<circle cx="562.73" cy="351.62" r="4" fill="#0d47a1"/>
<text x="562.73" y="452" text-anchor="middle" font-size="12" font-family="Helvetica" transform="rotate(35 562.73,452)">plaintext-requested-full-factorial-b5-rf3-isr3-msg1024-tps1000-batch16384-acksall-prod6-complz4-trial3</text>
<line x1="570.61" y1="355.98" x2="570.61" y2="355.98" stroke="#90caf9" stroke-width="2"/>
<circle cx="570.61" cy="355.98" r="4" fill="#0d47a1"/>
<text x="570.61" y="452" text-anchor="middle" font-size="12" font-family="Helvetica" transform="rotate(35 570.61,452)">plaintext-requested-full-factorial-b5-rf3-isr3-msg1024-tps1000-batch16384-acksall-prod6-compnone-trial1</text>
<line x1="578.48" y1="353.18" x2="578.48" y2="353.18" stroke="#90caf9" stroke-width="2"/>
<circle cx="578.48" cy="353.18" r="4" fill="#0d47a1"/>
<text x="578.48" y="452" text-anchor="middle" font-size="12" font-family="Helvetica" transform="rotate(35 578.48,452)">plaintext-requested-full-factorial-b5-rf3-isr3-msg1024-tps1000-batch16384-acksall-prod6-compnone-trial2</text>
<line x1="586.36" y1="350.55" x2="586.36" y2="350.55" stroke="#90caf9" stroke-width="2"/>
<circle cx="586.36" cy="350.55" r="4" fill="#0d47a1"/>
<text x="586.36" y="452" text-anchor="middle" font-size="12" font-family="Helvetica" transform="rotate(35 586.36,452)">plaintext-requested-full-factorial-b5-rf3-isr3-msg1024-tps1000-batch16384-acksall-prod6-compnone-trial3</text>
<line x1="594.24" y1="428.80" x2="594.24" y2="428.80" stroke="#90caf9" stroke-width="2"/>
<circle cx="594.24" cy="428.80" r="4" fill="#0d47a1"/>
<text x="594.24" y="452" text-anchor="middle" font-size="12" font-family="Helvetica" transform="rotate(35 594.24,452)">plaintext-requested-full-factorial-b5-rf3-isr3-msg1024-tps1000-batch65536-acks1-prod1-complz4-trial1</text>
<line x1="602.12" y1="429.55" x2="602.12" y2="429.55" stroke="#90caf9" stroke-width="2"/>
<circle cx="602.12" cy="429.55" r="4" fill="#0d47a1"/>
<text x="602.12" y="452" text-anchor="middle" font-size="12" font-family="Helvetica" transform="rotate(35 602.12,452)">plaintext-requested-full-factorial-b5-rf3-isr3-msg1024-tps1000-batch65536-acks1-prod1-complz4-trial2</text>
<line x1="610.00" y1="427.64" x2="610.00" y2="427.64" stroke="#90caf9" stroke-width="2"/>
<circle cx="610.00" cy="427.64" r="4" fill="#0d47a1"/>
<text x="610.00" y="452" text-anchor="middle" font-size="12" font-family="Helvetica" transform="rotate(35 610.00,452)">plaintext-requested-full-factorial-b5-rf3-isr3-msg1024-tps1000-batch65536-acks1-prod1-complz4-trial3</text>
<line x1="617.88" y1="430.00" x2="617.88" y2="430.00" stroke="#90caf9" stroke-width="2"/>
<circle cx="617.88" cy="430.00" r="4" fill="#0d47a1"/>
<text x="617.88" y="452" text-anchor="middle" font-size="12" font-family="Helvetica" transform="rotate(35 617.88,452)">plaintext-requested-full-factorial-b5-rf3-isr3-msg1024-tps1000-batch65536-acks1-prod1-compnone-trial1</text>
<line x1="625.76" y1="429.70" x2="625.76" y2="429.70" stroke="#90caf9" stroke-width="2"/>
<circle cx="625.76" cy="429.70" r="4" fill="#0d47a1"/>
<text x="625.76" y="452" text-anchor="middle" font-size="12" font-family="Helvetica" transform="rotate(35 625.76,452)">plaintext-requested-full-factorial-b5-rf3-isr3-msg1024-tps1000-batch65536-acks1-prod1-compnone-trial2</text>
<line x1="633.64" y1="429.65" x2="633.64" y2="429.65" stroke="#90caf9" stroke-width="2"/>
<circle cx="633.64" cy="429.65" r="4" fill="#0d47a1"/>
<text x="633.64" y="452" text-anchor="middle" font-size="12" font-family="Helvetica" transform="rotate(35 633.64,452)">plaintext-requested-full-factorial-b5-rf3-isr3-msg1024-tps1000-batch65536-acks1-prod1-compnone-trial3</text>
<line x1="641.52" y1="199.72" x2="641.52" y2="199.72" stroke="#90caf9" stroke-width="2"/>
<circle cx="641.52" cy="199.72" r="4" fill="#0d47a1"/>
<text x="641.52" y="452" text-anchor="middle" font-size="12" font-family="Helvetica" transform="rotate(35 641.52,452)">plaintext-requested-full-factorial-b5-rf3-isr3-msg1024-tps1000-batch65536-acks1-prod12-complz4-trial1</text>
<line x1="649.39" y1="212.82" x2="649.39" y2="212.82" stroke="#90caf9" stroke-width="2"/>
<circle cx="649.39" cy="212.82" r="4" fill="#0d47a1"/>
<text x="649.39" y="452" text-anchor="middle" font-size="12" font-family="Helvetica" transform="rotate(35 649.39,452)">plaintext-requested-full-factorial-b5-rf3-isr3-msg1024-tps1000-batch65536-acks1-prod12-complz4-trial2</text>
<line x1="657.27" y1="193.73" x2="657.27" y2="193.73" stroke="#90caf9" stroke-width="2"/>
<circle cx="657.27" cy="193.73" r="4" fill="#0d47a1"/>
<text x="657.27" y="452" text-anchor="middle" font-size="12" font-family="Helvetica" transform="rotate(35 657.27,452)">plaintext-requested-full-factorial-b5-rf3-isr3-msg1024-tps1000-batch65536-acks1-prod12-complz4-trial3</text>
<line x1="665.15" y1="211.35" x2="665.15" y2="211.35" stroke="#90caf9" stroke-width="2"/>
<circle cx="665.15" cy="211.35" r="4" fill="#0d47a1"/>
<text x="665.15" y="452" text-anchor="middle" font-size="12" font-family="Helvetica" transform="rotate(35 665.15,452)">plaintext-requested-full-factorial-b5-rf3-isr3-msg1024-tps1000-batch65536-acks1-prod12-compnone-trial1</text>
<line x1="673.03" y1="213.46" x2="673.03" y2="213.46" stroke="#90caf9" stroke-width="2"/>
<circle cx="673.03" cy="213.46" r="4" fill="#0d47a1"/>
<text x="673.03" y="452" text-anchor="middle" font-size="12" font-family="Helvetica" transform="rotate(35 673.03,452)">plaintext-requested-full-factorial-b5-rf3-isr3-msg1024-tps1000-batch65536-acks1-prod12-compnone-trial2</text>
<line x1="680.91" y1="205.86" x2="680.91" y2="205.86" stroke="#90caf9" stroke-width="2"/>
<circle cx="680.91" cy="205.86" r="4" fill="#0d47a1"/>
<text x="680.91" y="452" text-anchor="middle" font-size="12" font-family="Helvetica" transform="rotate(35 680.91,452)">plaintext-requested-full-factorial-b5-rf3-isr3-msg1024-tps1000-batch65536-acks1-prod12-compnone-trial3</text>
<line x1="688.79" y1="365.10" x2="688.79" y2="365.10" stroke="#90caf9" stroke-width="2"/>
<circle cx="688.79" cy="365.10" r="4" fill="#0d47a1"/>
<text x="688.79" y="452" text-anchor="middle" font-size="12" font-family="Helvetica" transform="rotate(35 688.79,452)">plaintext-requested-full-factorial-b5-rf3-isr3-msg1024-tps1000-batch65536-acks1-prod6-complz4-trial1</text>
<line x1="696.67" y1="362.88" x2="696.67" y2="362.88" stroke="#90caf9" stroke-width="2"/>
<circle cx="696.67" cy="362.88" r="4" fill="#0d47a1"/>
<text x="696.67" y="452" text-anchor="middle" font-size="12" font-family="Helvetica" transform="rotate(35 696.67,452)">plaintext-requested-full-factorial-b5-rf3-isr3-msg1024-tps1000-batch65536-acks1-prod6-complz4-trial2</text>
<line x1="704.55" y1="377.62" x2="704.55" y2="377.62" stroke="#90caf9" stroke-width="2"/>
<circle cx="704.55" cy="377.62" r="4" fill="#0d47a1"/>
<text x="704.55" y="452" text-anchor="middle" font-size="12" font-family="Helvetica" transform="rotate(35 704.55,452)">plaintext-requested-full-factorial-b5-rf3-isr3-msg1024-tps1000-batch65536-acks1-prod6-complz4-trial3</text>
<line x1="712.42" y1="385.72" x2="712.42" y2="385.72" stroke="#90caf9" stroke-width="2"/>
<circle cx="712.42" cy="385.72" r="4" fill="#0d47a1"/>
<text x="712.42" y="452" text-anchor="middle" font-size="12" font-family="Helvetica" transform="rotate(35 712.42,452)">plaintext-requested-full-factorial-b5-rf3-isr3-msg1024-tps1000-batch65536-acks1-prod6-compnone-trial1</text>
<line x1="720.30" y1="378.13" x2="720.30" y2="378.13" stroke="#90caf9" stroke-width="2"/>
<circle cx="720.30" cy="378.13" r="4" fill="#0d47a1"/>
<text x="720.30" y="452" text-anchor="middle" font-size="12" font-family="Helvetica" transform="rotate(35 720.30,452)">plaintext-requested-full-factorial-b5-rf3-isr3-msg1024-tps1000-batch65536-acks1-prod6-compnone-trial2</text>
<line x1="728.18" y1="379.55" x2="728.18" y2="379.55" stroke="#90caf9" stroke-width="2"/>
<circle cx="728.18" cy="379.55" r="4" fill="#0d47a1"/>
<text x="728.18" y="452" text-anchor="middle" font-size="12" font-family="Helvetica" transform="rotate(35 728.18,452)">plaintext-requested-full-factorial-b5-rf3-isr3-msg1024-tps1000-batch65536-acks1-prod6-compnone-trial3</text>
<line x1="736.06" y1="422.18" x2="736.06" y2="422.18" stroke="#90caf9" stroke-width="2"/>
<circle cx="736.06" cy="422.18" r="4" fill="#0d47a1"/>
<text x="736.06" y="452" text-anchor="middle" font-size="12" font-family="Helvetica" transform="rotate(35 736.06,452)">plaintext-requested-full-factorial-b5-rf3-isr3-msg1024-tps1000-batch65536-acksall-prod1-complz4-trial1</text>
<line x1="743.94" y1="422.03" x2="743.94" y2="422.03" stroke="#90caf9" stroke-width="2"/>
<circle cx="743.94" cy="422.03" r="4" fill="#0d47a1"/>
<text x="743.94" y="452" text-anchor="middle" font-size="12" font-family="Helvetica" transform="rotate(35 743.94,452)">plaintext-requested-full-factorial-b5-rf3-isr3-msg1024-tps1000-batch65536-acksall-prod1-complz4-trial2</text>
<line x1="751.82" y1="422.63" x2="751.82" y2="422.63" stroke="#90caf9" stroke-width="2"/>
<circle cx="751.82" cy="422.63" r="4" fill="#0d47a1"/>
<text x="751.82" y="452" text-anchor="middle" font-size="12" font-family="Helvetica" transform="rotate(35 751.82,452)">plaintext-requested-full-factorial-b5-rf3-isr3-msg1024-tps1000-batch65536-acksall-prod1-complz4-trial3</text>
<line x1="759.70" y1="422.78" x2="759.70" y2="422.78" stroke="#90caf9" stroke-width="2"/>
<circle cx="759.70" cy="422.78" r="4" fill="#0d47a1"/>
<text x="759.70" y="452" text-anchor="middle" font-size="12" font-family="Helvetica" transform="rotate(35 759.70,452)">plaintext-requested-full-factorial-b5-rf3-isr3-msg1024-tps1000-batch65536-acksall-prod1-compnone-trial1</text>
<line x1="767.58" y1="421.98" x2="767.58" y2="421.98" stroke="#90caf9" stroke-width="2"/>
<circle cx="767.58" cy="421.98" r="4" fill="#0d47a1"/>
<text x="767.58" y="452" text-anchor="middle" font-size="12" font-family="Helvetica" transform="rotate(35 767.58,452)">plaintext-requested-full-factorial-b5-rf3-isr3-msg1024-tps1000-batch65536-acksall-prod1-compnone-trial2</text>
<line x1="775.45" y1="422.43" x2="775.45" y2="422.43" stroke="#90caf9" stroke-width="2"/>
<circle cx="775.45" cy="422.43" r="4" fill="#0d47a1"/>
<text x="775.45" y="452" text-anchor="middle" font-size="12" font-family="Helvetica" transform="rotate(35 775.45,452)">plaintext-requested-full-factorial-b5-rf3-isr3-msg1024-tps1000-batch65536-acksall-prod1-compnone-trial3</text>
<line x1="783.33" y1="160.37" x2="783.33" y2="160.37" stroke="#90caf9" stroke-width="2"/>
<circle cx="783.33" cy="160.37" r="4" fill="#0d47a1"/>
<text x="783.33" y="452" text-anchor="middle" font-size="12" font-family="Helvetica" transform="rotate(35 783.33,452)">plaintext-requested-full-factorial-b5-rf3-isr3-msg1024-tps1000-batch65536-acksall-prod12-complz4-trial1</text>
<line x1="791.21" y1="170.15" x2="791.21" y2="170.15" stroke="#90caf9" stroke-width="2"/>
<circle cx="791.21" cy="170.15" r="4" fill="#0d47a1"/>
<text x="791.21" y="452" text-anchor="middle" font-size="12" font-family="Helvetica" transform="rotate(35 791.21,452)">plaintext-requested-full-factorial-b5-rf3-isr3-msg1024-tps1000-batch65536-acksall-prod12-complz4-trial2</text>
<line x1="799.09" y1="167.80" x2="799.09" y2="167.80" stroke="#90caf9" stroke-width="2"/>
<circle cx="799.09" cy="167.80" r="4" fill="#0d47a1"/>
<text x="799.09" y="452" text-anchor="middle" font-size="12" font-family="Helvetica" transform="rotate(35 799.09,452)">plaintext-requested-full-factorial-b5-rf3-isr3-msg1024-tps1000-batch65536-acksall-prod12-complz4-trial3</text>
<line x1="806.97" y1="180.82" x2="806.97" y2="180.82" stroke="#90caf9" stroke-width="2"/>
<circle cx="806.97" cy="180.82" r="4" fill="#0d47a1"/>
<text x="806.97" y="452" text-anchor="middle" font-size="12" font-family="Helvetica" transform="rotate(35 806.97,452)">plaintext-requested-full-factorial-b5-rf3-isr3-msg1024-tps1000-batch65536-acksall-prod12-compnone-trial1</text>
<line x1="814.85" y1="197.45" x2="814.85" y2="197.45" stroke="#90caf9" stroke-width="2"/>
<circle cx="814.85" cy="197.45" r="4" fill="#0d47a1"/>
<text x="814.85" y="452" text-anchor="middle" font-size="12" font-family="Helvetica" transform="rotate(35 814.85,452)">plaintext-requested-full-factorial-b5-rf3-isr3-msg1024-tps1000-batch65536-acksall-prod12-compnone-trial2</text>
<line x1="822.73" y1="208.54" x2="822.73" y2="208.54" stroke="#90caf9" stroke-width="2"/>
<circle cx="822.73" cy="208.54" r="4" fill="#0d47a1"/>
<text x="822.73" y="452" text-anchor="middle" font-size="12" font-family="Helvetica" transform="rotate(35 822.73,452)">plaintext-requested-full-factorial-b5-rf3-isr3-msg1024-tps1000-batch65536-acksall-prod12-compnone-trial3</text>
<line x1="830.61" y1="364.18" x2="830.61" y2="364.18" stroke="#90caf9" stroke-width="2"/>
<circle cx="830.61" cy="364.18" r="4" fill="#0d47a1"/>
<text x="830.61" y="452" text-anchor="middle" font-size="12" font-family="Helvetica" transform="rotate(35 830.61,452)">plaintext-requested-full-factorial-b5-rf3-isr3-msg1024-tps1000-batch65536-acksall-prod6-complz4-trial1</text>
<line x1="838.48" y1="371.74" x2="838.48" y2="371.74" stroke="#90caf9" stroke-width="2"/>
<circle cx="838.48" cy="371.74" r="4" fill="#0d47a1"/>
<text x="838.48" y="452" text-anchor="middle" font-size="12" font-family="Helvetica" transform="rotate(35 838.48,452)">plaintext-requested-full-factorial-b5-rf3-isr3-msg1024-tps1000-batch65536-acksall-prod6-complz4-trial2</text>
<line x1="846.36" y1="365.89" x2="846.36" y2="365.89" stroke="#90caf9" stroke-width="2"/>
<circle cx="846.36" cy="365.89" r="4" fill="#0d47a1"/>
<text x="846.36" y="452" text-anchor="middle" font-size="12" font-family="Helvetica" transform="rotate(35 846.36,452)">plaintext-requested-full-factorial-b5-rf3-isr3-msg1024-tps1000-batch65536-acksall-prod6-complz4-trial3</text>
<line x1="854.24" y1="363.63" x2="854.24" y2="363.63" stroke="#90caf9" stroke-width="2"/>
<circle cx="854.24" cy="363.63" r="4" fill="#0d47a1"/>
<text x="854.24" y="452" text-anchor="middle" font-size="12" font-family="Helvetica" transform="rotate(35 854.24,452)">plaintext-requested-full-factorial-b5-rf3-isr3-msg1024-tps1000-batch65536-acksall-prod6-compnone-trial1</text>
<line x1="862.12" y1="372.14" x2="862.12" y2="372.14" stroke="#90caf9" stroke-width="2"/>
<circle cx="862.12" cy="372.14" r="4" fill="#0d47a1"/>
<text x="862.12" y="452" text-anchor="middle" font-size="12" font-family="Helvetica" transform="rotate(35 862.12,452)">plaintext-requested-full-factorial-b5-rf3-isr3-msg1024-tps1000-batch65536-acksall-prod6-compnone-trial2</text>
<line x1="870.00" y1="373.67" x2="870.00" y2="373.67" stroke="#90caf9" stroke-width="2"/>
<circle cx="870.00" cy="373.67" r="4" fill="#0d47a1"/>
<text x="870.00" y="452" text-anchor="middle" font-size="12" font-family="Helvetica" transform="rotate(35 870.00,452)">plaintext-requested-full-factorial-b5-rf3-isr3-msg1024-tps1000-batch65536-acksall-prod6-compnone-trial3</text>
<text x="450" y="500" text-anchor="middle" font-size="14" font-family="Helvetica">Sweep category</text>
<text x="20" y="260" text-anchor="middle" font-size="14" font-family="Helvetica" transform="rotate(-90 20,260)">Mean Average Latency (ms)</text>
</svg>
