<svg xmlns="http://www.w3.org/2000/svg" width="900" height="520" viewBox="0 0 900 520">
<rect width="100%" height="100%" fill="white"/>
<text x="450" y="24" text-anchor="middle" font-size="20" font-family="Helvetica">Mean Throughput (records/sec)</text>
<line x1="90" y1="430" x2="870" y2="430" stroke="#333" stroke-width="2"/>
<line x1="90" y1="40" x2="90" y2="430" stroke="#333" stroke-width="2"/>
<line x1="90" y1="430.00" x2="870" y2="430.00" stroke="#e0e0e0" stroke-width="1"/>
<text x="80" y="434.00" text-anchor="end" font-size="12" font-family="Helvetica">998.35</text>
<line x1="90" y1="332.50" x2="870" y2="332.50" stroke="#e0e0e0" stroke-width="1"/>
<text x="80" y="336.50" text-anchor="end" font-size="12" font-family="Helvetica">998.71</text>
<line x1="90" y1="235.00" x2="870" y2="235.00" stroke="#e0e0e0" stroke-width="1"/>
<text x="80" y="239.00" text-anchor="end" font-size="12" font-family="Helvetica">999.07</text>
<line x1="90" y1="137.50" x2="870" y2="137.50" stroke="#e0e0e0" stroke-width="1"/>
<text x="80" y="141.50" text-anchor="end" font-size="12" font-family="Helvetica">999.44</text>
<line x1="90" y1="40.00" x2="870" y2="40.00" stroke="#e0e0e0" stroke-width="1"/>
<text x="80" y="44.00" text-anchor="end" font-size="12" font-family="Helvetica">999.80</text>
<polyline fill="none" stroke="#1565c0" stroke-width="3" points="90.00,66.80 97.88,56.08 105.76,77.51 113.64,48.04 121.52,64.12 129.39,74.84 137.27,52.63 145.15,86.33 153.03,67.69 160.91,278.76 168.79,308.57 176.67,335.55 184.55,56.23 192.42,55.34 200.30,44.61 208.18,65.66 216.06,126.05 223.94,84.31 231.82,48.04 239.70,50.72 247.58,61.44 255.45,45.36 263.33,48.04 271.21,45.36 279.09,102.41 286.97,127.04 294.85,94.79 302.73,71.79 310.61,69.48 318.48,77.51 326.36,58.76 334.24,85.55 342.12,61.44 350.00,64.12 357.88,142.13 365.76,98.60 373.64,104.79 381.52,175.91 389.39,125.10 397.27,129.96 405.15,49.95 413.03,54.42 420.91,70.09 428.79,61.15 436.67,63.32 444.55,66.05 452.42,50.72 460.30,53.40 468.18,48.04 476.06,53.40 483.94,72.16 491.82,50.72 499.70,146.03 507.58,93.28 515.45,130.21 523.33,363.37 531.21,430.00 539.09,406.23 546.97,91.08 554.85,72.82 562.73,70.79 570.61,99.46 578.48,99.57 586.36,132.79 594.24,66.80 602.12,61.44 610.00,58.76 617.88,56.08 625.76,66.80 633.64,61.44 641.52,119.33 649.39,79.54 657.27,165.92 665.15,197.48 673.03,320.29 680.91,277.60 688.79,61.10 696.67,83.54 704.55,86.96 712.42,65.63 720.30,75.35 728.18,86.04 736.06,53.40 743.94,48.04 751.82,40.00 759.70,53.40 767.58,56.08 775.45,48.04 783.33,166.18 791.21,110.68 799.09,211.73 806.97,224.44 814.85,308.06 822.73,243.61 830.61,133.34 838.48,83.91 846.36,96.58 854.24,116.40 862.12,76.41 870.00,86.69"/>
<line x1="90.00" y1="66.80" x2="90.00" y2="66.80" stroke="#90caf9" stroke-width="2"/>
<circle cx="90.00" cy="66.80" r="4" fill="#0d47a1"/>
<text x="90.00" y="452" text-anchor="middle" font-size="12" font-family="Helvetica" transform="rotate(35 90.00,452)">plaintext-requested-full-factorial-b5-rf3-isr3-msg1024-tps1000-batch131072-acks1-prod1-complz4-trial1</text>
<line x1="97.88" y1="56.08" x2="97.88" y2="56.08" stroke="#90caf9" stroke-width="2"/>
<circle cx="97.88" cy="56.08" r="4" fill="#0d47a1"/>
<text x="97.88" y="452" text-anchor="middle" font-size="12" font-family="Helvetica" transform="rotate(35 97.88,452)">plaintext-requested-full-factorial-b5-rf3-isr3-msg1024-tps1000-batch131072-acks1-prod1-complz4-trial2</text>
<line x1="105.76" y1="77.51" x2="105.76" y2="77.51" stroke="#90caf9" stroke-width="2"/>
<circle cx="105.76" cy="77.51" r="4" fill="#0d47a1"/>
<text x="105.76" y="452" text-anchor="middle" font-size="12" font-family="Helvetica" transform="rotate(35 105.76,452)">plaintext-requested-full-factorial-b5-rf3-isr3-msg1024-tps1000-batch131072-acks1-prod1-complz4-trial3</text>
<line x1="113.64" y1="48.04" x2="113.64" y2="48.04" stroke="#90caf9" stroke-width="2"/>
<circle cx="113.64" cy="48.04" r="4" fill="#0d47a1"/>
<text x="113.64" y="452" text-anchor="middle" font-size="12" font-family="Helvetica" transform="rotate(35 113.64,452)">plaintext-requested-full-factorial-b5-rf3-isr3-msg1024-tps1000-batch131072-acks1-prod1-compnone-trial1</text>
<line x1="121.52" y1="64.12" x2="121.52" y2="64.12" stroke="#90caf9" stroke-width="2"/>
<circle cx="121.52" cy="64.12" r="4" fill="#0d47a1"/>
<text x="121.52" y="452" text-anchor="middle" font-size="12" font-family="Helvetica" transform="rotate(35 121.52,452)">plaintext-requested-full-factorial-b5-rf3-isr3-msg1024-tps1000-batch131072-acks1-prod1-compnone-trial2</text>
<line x1="129.39" y1="74.84" x2="129.39" y2="74.84" stroke="#90caf9" stroke-width="2"/>
<circle cx="129.39" cy="74.84" r="4" fill="#0d47a1"/>
<text x="129.39" y="452" text-anchor="middle" font-size="12" font-family="Helvetica" transform="rotate(35 129.39,452)">plaintext-requested-full-factorial-b5-rf3-isr3-msg1024-tps1000-batch131072-acks1-prod1-compnone-trial3</text>
<line x1="137.27" y1="52.63" x2="137.27" y2="52.63" stroke="#90caf9" stroke-width="2"/>
<circle cx="137.27" cy="52.63" r="4" fill="#0d47a1"/>
<text x="137.27" y="452" text-anchor="middle" font-size="12" font-family="Helvetica" transform="rotate(35 137.27,452)">plaintext-requested-full-factorial-b5-rf3-isr3-msg1024-tps1000-batch131072-acks1-prod12-complz4-trial1</text>
<line x1="145.15" y1="86.33" x2="145.15" y2="86.33" stroke="#90caf9" stroke-width="2"/>
<circle cx="145.15" cy="86.33" r="4" fill="#0d47a1"/>
<text x="145.15" y="452" text-anchor="middle" font-size="12" font-family="Helvetica" transform="rotate(35 145.15,452)">plaintext-requested-full-factorial-b5-rf3-isr3-msg1024-tps1000-batch131072-acks1-prod12-complz4-trial2</text>
<line x1="153.03" y1="67.69" x2="153.03" y2="67.69" stroke="#90caf9" stroke-width="2"/>
<circle cx="153.03" cy="67.69" r="4" fill="#0d47a1"/>
<text x="153.03" y="452" text-anchor="middle" font-size="12" font-family="Helvetica" transform="rotate(35 153.03,452)">plaintext-requested-full-factorial-b5-rf3-isr3-msg1024-tps1000-batch131072-acks1-prod12-complz4-trial3</text>
<line x1="160.91" y1="278.76" x2="160.91" y2="278.76" stroke="#90caf9" stroke-width="2"/>
<circle cx="160.91" cy="278.76" r="4" fill="#0d47a1"/>
<text x="160.91" y="452" text-anchor="middle" font-size="12" font-family="Helvetica" transform="rotate(35 160.91,452)">plaintext-requested-full-factorial-b5-rf3-isr3-msg1024-tps1000-batch131072-acks1-prod12-compnone-trial1</text>
<line x1="168.79" y1="308.57" x2="168.79" y2="308.57" stroke="#90caf9" stroke-width="2"/>
<circle cx="168.79" cy="308.57" r="4" fill="#0d47a1"/>
<text x="168.79" y="452" text-anchor="middle" font-size="12" font-family="Helvetica" transform="rotate(35 168.79,452)">plaintext-requested-full-factorial-b5-rf3-isr3-msg1024-tps1000-batch131072-acks1-prod12-compnone-trial2</text>
<line x1="176.67" y1="335.55" x2="176.67" y2="335.55" stroke="#90caf9" stroke-width="2"/>
<circle cx="176.67" cy="335.55" r="4" fill="#0d47a1"/>
<text x="176.67" y="452" text-anchor="middle" font-size="12" font-family="Helvetica" transform="rotate(35 176.67,452)">plaintext-requested-full-factorial-b5-rf3-isr3-msg1024-tps1000-batch131072-acks1-prod12-compnone-trial3</text>
<line x1="184.55" y1="56.23" x2="184.55" y2="56.23" stroke="#90caf9" stroke-width="2"/>
<circle cx="184.55" cy="56.23" r="4" fill="#0d47a1"/>
<text x="184.55" y="452" text-anchor="middle" font-size="12" font-family="Helvetica" transform="rotate(35 184.55,452)">plaintext-requested-full-factorial-b5-rf3-isr3-msg1024-tps1000-batch131072-acks1-prod6-complz4-trial1</text>
<line x1="192.42" y1="55.34" x2="192.42" y2="55.34" stroke="#90caf9" stroke-width="2"/>
<circle cx="192.42" cy="55.34" r="4" fill="#0d47a1"/>
<text x="192.42" y="452" text-anchor="middle" font-size="12" font-family="Helvetica" transform="rotate(35 192.42,452)">plaintext-requested-full-factorial-b5-rf3-isr3-msg1024-tps1000-batch131072-acks1-prod6-complz4-trial2</text>
<line x1="200.30" y1="44.61" x2="200.30" y2="44.61" stroke="#90caf9" stroke-width="2"/>
<circle cx="200.30" cy="44.61" r="4" fill="#0d47a1"/>
<text x="200.30" y="452" text-anchor="middle" font-size="12" font-family="Helvetica" transform="rotate(35 200.30,452)">plaintext-requested-full-factorial-b5-rf3-isr3-msg1024-tps1000-batch131072-acks1-prod6-complz4-trial3</text>
<line x1="208.18" y1="65.66" x2="208.18" y2="65.66" stroke="#90caf9" stroke-width="2"/>
<circle cx="208.18" cy="65.66" r="4" fill="#0d47a1"/>
<text x="208.18" y="452" text-anchor="middle" font-size="12" font-family="Helvetica" transform="rotate(35 208.18,452)">plaintext-requested-full-factorial-b5-rf3-isr3-msg1024-tps1000-batch131072-acks1-prod6-compnone-trial1</text>
<line x1="216.06" y1="126.05" x2="216.06" y2="126.05" stroke="#90caf9" stroke-width="2"/>
<circle cx="216.06" cy="126.05" r="4" fill="#0d47a1"/>
<text x="216.06" y="452" text-anchor="middle" font-size="12" font-family="Helvetica" transform="rotate(35 216.06,452)">plaintext-requested-full-factorial-b5-rf3-isr3-msg1024-tps1000-batch131072-acks1-prod6-compnone-trial2</text>
<line x1="223.94" y1="84.31" x2="223.94" y2="84.31" stroke="#90caf9" stroke-width="2"/>
<circle cx="223.94" cy="84.31" r="4" fill="#0d47a1"/>
<text x="223.94" y="452" text-anchor="middle" font-size="12" font-family="Helvetica" transform="rotate(35 223.94,452)">plaintext-requested-full-factorial-b5-rf3-isr3-msg1024-tps1000-batch131072-acks1-prod6-compnone-trial3</text>
<line x1="231.82" y1="48.04" x2="231.82" y2="48.04" stroke="#90caf9" stroke-width="2"/>
<circle cx="231.82" cy="48.04" r="4" fill="#0d47a1"/>
<text x="231.82" y="452" text-anchor="middle" font-size="12" font-family="Helvetica" transform="rotate(35 231.82,452)">plaintext-requested-full-factorial-b5-rf3-isr3-msg1024-tps1000-batch131072-acksall-prod1-complz4-trial1</text>
<line x1="239.70" y1="50.72" x2="239.70" y2="50.72" stroke="#90caf9" stroke-width="2"/>
<circle cx="239.70" cy="50.72" r="4" fill="#0d47a1"/>
<text x="239.70" y="452" text-anchor="middle" font-size="12" font-family="Helvetica" transform="rotate(35 239.70,452)">plaintext-requested-full-factorial-b5-rf3-isr3-msg1024-tps1000-batch131072-acksall-prod1-complz4-trial2</text>
<line x1="247.58" y1="61.44" x2="247.58" y2="61.44" stroke="#90caf9" stroke-width="2"/>
<circle cx="247.58" cy="61.44" r="4" fill="#0d47a1"/>
<text x="247.58" y="452" text-anchor="middle" font-size="12" font-family="Helvetica" transform="rotate(35 247.58,452)">plaintext-requested-full-factorial-b5-rf3-isr3-msg1024-tps1000-batch131072-acksall-prod1-complz4-trial3</text>
<line x1="255.45" y1="45.36" x2="255.45" y2="45.36" stroke="#90caf9" stroke-width="2"/>
<circle cx="255.45" cy="45.36" r="4" fill="#0d47a1"/>
<text x="255.45" y="452" text-anchor="middle" font-size="12" font-family="Helvetica" transform="rotate(35 255.45,452)">plaintext-requested-full-factorial-b5-rf3-isr3-msg1024-tps1000-batch131072-acksall-prod1-compnone-trial1</text>
<line x1="263.33" y1="48.04" x2="263.33" y2="48.04" stroke="#90caf9" stroke-width="2"/>
<circle cx="263.33" cy="48.04" r="4" fill="#0d47a1"/>
<text x="263.33" y="452" text-anchor="middle" font-size="12" font-family="Helvetica" transform="rotate(35 263.33,452)">plaintext-requested-full-factorial-b5-rf3-isr3-msg1024-tps1000-batch131072-acksall-prod1-compnone-trial2</text>
<line x1="271.21" y1="45.36" x2="271.21" y2="45.36" stroke="#90caf9" stroke-width="2"/>
<circle cx="271.21" cy="45.36" r="4" fill="#0d47a1"/>
<text x="271.21" y="452" text-anchor="middle" font-size="12" font-family="Helvetica" transform="rotate(35 271.21,452)">plaintext-requested-full-factorial-b5-rf3-isr3-msg1024-tps1000-batch131072-acksall-prod1-compnone-trial3</text>
<line x1="279.09" y1="102.41" x2="279.09" y2="102.41" stroke="#90caf9" stroke-width="2"/>
<circle cx="279.09" cy="102.41" r="4" fill="#0d47a1"/>
<text x="279.09" y="452" text-anchor="middle" font-size="12" font-family="Helvetica" transform="rotate(35 279.09,452)">plaintext-requested-full-factorial-b5-rf3-isr3-msg1024-tps1000-batch131072-acksall-prod6-complz4-trial1</text>
<line x1="286.97" y1="127.04" x2="286.97" y2="127.04" stroke="#90caf9" stroke-width="2"/>
<circle cx="286.97" cy="127.04" r="4" fill="#0d47a1"/>
<text x="286.97" y="452" text-anchor="middle" font-size="12" font-family="Helvetica" transform="rotate(35 286.97,452)">plaintext-requested-full-factorial-b5-rf3-isr3-msg1024-tps1000-batch131072-acksall-prod6-compnone-trial1</text>
<line x1="294.85" y1="94.79" x2="294.85" y2="94.79" stroke="#90caf9" stroke-width="2"/>
<circle cx="294.85" cy="94.79" r="4" fill="#0d47a1"/>
<text x="294.85" y="452" text-anchor="middle" font-size="12" font-family="Helvetica" transform="rotate(35 294.85,452)">plaintext-requested-full-factorial-b5-rf3-isr3-msg1024-tps1000-batch131072-acksall-prod6-compnone-trial2</text>
<line x1="302.73" y1="71.79" x2="302.73" y2="71.79" stroke="#90caf9" stroke-width="2"/>
<circle cx="302.73" cy="71.79" r="4" fill="#0d47a1"/>
<text x="302.73" y="452" text-anchor="middle" font-size="12" font-family="Helvetica" transform="rotate(35 302.73,452)">plaintext-requested-full-factorial-b5-rf3-isr3-msg1024-tps1000-batch131072-acksall-prod6-compnone-trial3</text>
<line x1="310.61" y1="69.48" x2="310.61" y2="69.48" stroke="#90caf9" stroke-width="2"/>
<circle cx="310.61" cy="69.48" r="4" fill="#0d47a1"/>
<text x="310.61" y="452" text-anchor="middle" font-size="12" font-family="Helvetica" transform="rotate(35 310.61,452)">plaintext-requested-full-factorial-b5-rf3-isr3-msg1024-tps1000-batch16384-acks1-prod1-complz4-trial1</text>
<line x1="318.48" y1="77.51" x2="318.48" y2="77.51" stroke="#90caf9" stroke-width="2"/>
<circle cx="318.48" cy="77.51" r="4" fill="#0d47a1"/>
<text x="318.48" y="452" text-anchor="middle" font-size="12" font-family="Helvetica" transform="rotate(35 318.48,452)">plaintext-requested-full-factorial-b5-rf3-isr3-msg1024-tps1000-batch16384-acks1-prod1-complz4-trial2</text>
<line x1="326.36" y1="58.76" x2="326.36" y2="58.76" stroke="#90caf9" stroke-width="2"/>
<circle cx="326.36" cy="58.76" r="4" fill="#0d47a1"/>
<text x="326.36" y="452" text-anchor="middle" font-size="12" font-family="Helvetica" transform="rotate(35 326.36,452)">plaintext-requested-full-factorial-b5-rf3-isr3-msg1024-tps1000-batch16384-acks1-prod1-complz4-trial3</text>
<line x1="334.24" y1="85.55" x2="334.24" y2="85.55" stroke="#90caf9" stroke-width="2"/>
<circle cx="334.24" cy="85.55" r="4" fill="#0d47a1"/>
<text x="334.24" y="452" text-anchor="middle" font-size="12" font-family="Helvetica" transform="rotate(35 334.24,452)">plaintext-requested-full-factorial-b5-rf3-isr3-msg1024-tps1000-batch16384-acks1-prod1-compnone-trial1</text>
<line x1="342.12" y1="61.44" x2="342.12" y2="61.44" stroke="#90caf9" stroke-width="2"/>
<circle cx="342.12" cy="61.44" r="4" fill="#0d47a1"/>
<text x="342.12" y="452" text-anchor="middle" font-size="12" font-family="Helvetica" transform="rotate(35 342.12,452)">plaintext-requested-full-factorial-b5-rf3-isr3-msg1024-tps1000-batch16384-acks1-prod1-compnone-trial2</text>
<line x1="350.00" y1="64.12" x2="350.00" y2="64.12" stroke="#90caf9" stroke-width="2"/>
<circle cx="350.00" cy="64.12" r="4" fill="#0d47a1"/>
<text x="350.00" y="452" text-anchor="middle" font-size="12" font-family="Helvetica" transform="rotate(35 350.00,452)">plaintext-requested-full-factorial-b5-rf3-isr3-msg1024-tps1000-batch16384-acks1-prod1-compnone-trial3</text>
<line x1="357.88" y1="142.13" x2="357.88" y2="142.13" stroke="#90caf9" stroke-width="2"/>
<circle cx="357.88" cy="142.13" r="4" fill="#0d47a1"/>
<text x="357.88" y="452" text-anchor="middle" font-size="12" font-family="Helvetica" transform="rotate(35 357.88,452)">plaintext-requested-full-factorial-b5-rf3-isr3-msg1024-tps1000-batch16384-acks1-prod12-complz4-trial1</text>
<line x1="365.76" y1="98.60" x2="365.76" y2="98.60" stroke="#90caf9" stroke-width="2"/>
<circle cx="365.76" cy="98.60" r="4" fill="#0d47a1"/>
<text x="365.76" y="452" text-anchor="middle" font-size="12" font-family="Helvetica" transform="rotate(35 365.76,452)">plaintext-requested-full-factorial-b5-rf3-isr3-msg1024-tps1000-batch16384-acks1-prod12-complz4-trial2</text>
<line x1="373.64" y1="104.79" x2="373.64" y2="104.79" stroke="#90caf9" stroke-width="2"/>
<circle cx="373.64" cy="104.79" r="4" fill="#0d47a1"/>
<text x="373.64" y="452" text-anchor="middle" font-size="12" font-family="Helvetica" transform="rotate(35 373.64,452)">plaintext-requested-full-factorial-b5-rf3-isr3-msg1024-tps1000-batch16384-acks1-prod12-complz4-trial3</text>
<line x1="381.52" y1="175.91" x2="381.52" y2="175.91" stroke="#90caf9" stroke-width="2"/>
<circle cx="381.52" cy="175.91" r="4" fill="#0d47a1"/>
<text x="381.52" y="452" text-anchor="middle" font-size="12" font-family="Helvetica" transform="rotate(35 381.52,452)">plaintext-requested-full-factorial-b5-rf3-isr3-msg1024-tps1000-batch16384-acks1-prod12-compnone-trial1</text>
<line x1="389.39" y1="125.10" x2="389.39" y2="125.10" stroke="#90caf9" stroke-width="2"/>
<circle cx="389.39" cy="125.10" r="4" fill="#0d47a1"/>
<text x="389.39" y="452" text-anchor="middle" font-size="12" font-family="Helvetica" transform="rotate(35 389.39,452)">plaintext-requested-full-factorial-b5-rf3-isr3-msg1024-tps1000-batch16384-acks1-prod12-compnone-trial2</text>
<line x1="397.27" y1="129.96" x2="397.27" y2="129.96" stroke="#90caf9" stroke-width="2"/>
<circle cx="397.27" cy="129.96" r="4" fill="#0d47a1"/>
<text x="397.27" y="452" text-anchor="middle" font-size="12" font-family="Helvetica" transform="rotate(35 397.27,452)">plaintext-requested-full-factorial-b5-rf3-isr3-msg1024-tps1000-batch16384-acks1-prod12-compnone-trial3</text>
<line x1="405.15" y1="49.95" x2="405.15" y2="49.95" stroke="#90caf9" stroke-width="2"/>
<circle cx="405.15" cy="49.95" r="4" fill="#0d47a1"/>
<text x="405.15" y="452" text-anchor="middle" font-size="12" font-family="Helvetica" transform="rotate(35 405.15,452)">plaintext-requested-full-factorial-b5-rf3-isr3-msg1024-tps1000-batch16384-acks1-prod6-complz4-trial1</text>
<line x1="413.03" y1="54.42" x2="413.03" y2="54.42" stroke="#90caf9" stroke-width="2"/>
<circle cx="413.03" cy="54.42" r="4" fill="#0d47a1"/>
<text x="413.03" y="452" text-anchor="middle" font-size="12" font-family="Helvetica" transform="rotate(35 413.03,452)">plaintext-requested-full-factorial-b5-rf3-isr3-msg1024-tps1000-batch16384-acks1-prod6-complz4-trial2</text>
<line x1="420.91" y1="70.09" x2="420.91" y2="70.09" stroke="#90caf9" stroke-width="2"/>
<circle cx="420.91" cy="70.09" r="4" fill="#0d47a1"/>
<text x="420.91" y="452" text-anchor="middle" font-size="12" font-family="Helvetica" transform="rotate(35 420.91,452)">plaintext-requested-full-factorial-b5-rf3-isr3-msg1024-tps1000-batch16384-acks1-prod6-complz4-trial3</text>
<line x1="428.79" y1="61.15" x2="428.79" y2="61.15" stroke="#90caf9" stroke-width="2"/>
<circle cx="428.79" cy="61.15" r="4" fill="#0d47a1"/>
<text x="428.79" y="452" text-anchor="middle" font-size="12" font-family="Helvetica" transform="rotate(35 428.79,452)">plaintext-requested-full-factorial-b5-rf3-isr3-msg1024-tps1000-batch16384-acks1-prod6-compnone-trial1</text>
<line x1="436.67" y1="63.32" x2="436.67" y2="63.32" stroke="#90caf9" stroke-width="2"/>
<circle cx="436.67" cy="63.32" r="4" fill="#0d47a1"/>
<text x="436.67" y="452" text-anchor="middle" font-size="12" font-family="Helvetica" transform="rotate(35 436.67,452)">plaintext-requested-full-factorial-b5-rf3-isr3-msg1024-tps1000-batch16384-acks1-prod6-compnone-trial2</text>
<line x1="444.55" y1="66.05" x2="444.55" y2="66.05" stroke="#90caf9" stroke-width="2"/>
<circle cx="444.55" cy="66.05" r="4" fill="#0d47a1"/>
<text x="444.55" y="452" text-anchor="middle" font-size="12" font-family="Helvetica" transform="rotate(35 444.55,452)">plaintext-requested-full-factorial-b5-rf3-isr3-msg1024-tps1000-batch16384-acks1-prod6-compnone-trial3</text>
<line x1="452.42" y1="50.72" x2="452.42" y2="50.72" stroke="#90caf9" stroke-width="2"/>
<circle cx="452.42" cy="50.72" r="4" fill="#0d47a1"/>
<text x="452.42" y="452" text-anchor="middle" font-size="12" font-family="Helvetica" transform="rotate(35 452.42,452)">plaintext-requested-full-factorial-b5-rf3-isr3-msg1024-tps1000-batch16384-acksall-prod1-complz4-trial1</text>
<line x1="460.30" y1="53.40" x2="460.30" y2="53.40" stroke="#90caf9" stroke-width="2"/>
<circle cx="460.30" cy="53.40" r="4" fill="#0d47a1"/>
<text x="460.30" y="452" text-anchor="middle" font-size="12" font-family="Helvetica" transform="rotate(35 460.30,452)">plaintext-requested-full-factorial-b5-rf3-isr3-msg1024-tps1000-batch16384-acksall-prod1-complz4-trial2</text>
<line x1="468.18" y1="48.04" x2="468.18" y2="48.04" stroke="#90caf9" stroke-width="2"/>
<circle cx="468.18" cy="48.04" r="4" fill="#0d47a1"/>
<text x="468.18" y="452" text-anchor="middle" font-size="12" font-family="Helvetica" transform="rotate(35 468.18,452)">plaintext-requested-full-factorial-b5-rf3-isr3-msg1024-tps1000-batch16384-acksall-prod1-complz4-trial3</text>
<line x1="476.06" y1="53.40" x2="476.06" y2="53.40" stroke="#90caf9" stroke-width="2"/>
<circle cx="476.06" cy="53.40" r="4" fill="#0d47a1"/>
<text x="476.06" y="452" text-anchor="middle" font-size="12" font-family="Helvetica" transform="rotate(35 476.06,452)">plaintext-requested-full-factorial-b5-rf3-isr3-msg1024-tps1000-batch16384-acksall-prod1-compnone-trial1</text>
<line x1="483.94" y1="72.16" x2="483.94" y2="72.16" stroke="#90caf9" stroke-width="2"/>
<circle cx="483.94" cy="72.16" r="4" fill="#0d47a1"/>
<text x="483.94" y="452" text-anchor="middle" font-size="12" font-family="Helvetica" transform="rotate(35 483.94,452)">plaintext-requested-full-factorial-b5-rf3-isr3-msg1024-tps1000-batch16384-acksall-prod1-compnone-trial2</text>
<line x1="491.82" y1="50.72" x2="491.82" y2="50.72" stroke="#90caf9" stroke-width="2"/>
<circle cx="491.82" cy="50.72" r="4" fill="#0d47a1"/>
<text x="491.82" y="452" text-anchor="middle" font-size="12" font-family="Helvetica" transform="rotate(35 491.82,452)">plaintext-requested-full-factorial-b5-rf3-isr3-msg1024-tps1000-batch16384-acksall-prod1-compnone-trial3</text>
<line x1="499.70" y1="146.03" x2="499.70" y2="146.03" stroke="#90caf9" stroke-width="2"/>
<circle cx="499.70" cy="146.03" r="4" fill="#0d47a1"/>
<text x="499.70" y="452" text-anchor="middle" font-size="12" font-family="Helvetica" transform="rotate(35 499.70,452)">plaintext-requested-full-factorial-b5-rf3-isr3-msg1024-tps1000-batch16384-acksall-prod12-complz4-trial1</text>
<line x1="507.58" y1="93.28" x2="507.58" y2="93.28" stroke="#90caf9" stroke-width="2"/>
<circle cx="507.58" cy="93.28" r="4" fill="#0d47a1"/>
<text x="507.58" y="452" text-anchor="middle" font-size="12" font-family="Helvetica" transform="rotate(35 507.58,452)">plaintext-requested-full-factorial-b5-rf3-isr3-msg1024-tps1000-batch16384-acksall-prod12-complz4-trial2</text>
<line x1="515.45" y1="130.21" x2="515.45" y2="130.21" stroke="#90caf9" stroke-width="2"/>
<circle cx="515.45" cy="130.21" r="4" fill="#0d47a1"/>
<text x="515.45" y="452" text-anchor="middle" font-size="12" font-family="Helvetica" transform="rotate(35 515.45,452)">plaintext-requested-full-factorial-b5-rf3-isr3-msg1024-tps1000-batch16384-acksall-prod12-complz4-trial3</text>
<line x1="523.33" y1="363.37" x2="523.33" y2="363.37" stroke="#90caf9" stroke-width="2"/>
<circle cx="523.33" cy="363.37" r="4" fill="#0d47a1"/>
<text x="523.33" y="452" text-anchor="middle" font-size="12" font-family="Helvetica" transform="rotate(35 523.33,452)">plaintext-requested-full-factorial-b5-rf3-isr3-msg1024-tps1000-batch16384-acksall-prod12-compnone-trial1</text>
<line x1="531.21" y1="430.00" x2="531.21" y2="430.00" stroke="#90caf9" stroke-width="2"/>
<circle cx="531.21" cy="430.00" r="4" fill="#0d47a1"/>
<text x="531.21" y="452" text-anchor="middle" font-size="12" font-family="Helvetica" transform="rotate(35 531.21,452)">plaintext-requested-full-factorial-b5-rf3-isr3-msg1024-tps1000-batch16384-acksall-prod12-compnone-trial2</text>
<line x1="539.09" y1="406.23" x2="539.09" y2="406.23" stroke="#90caf9" stroke-width="2"/>
<circle cx="539.09" cy="406.23" r="4" fill="#0d47a1"/>
<text x="539.09" y="452" text-anchor="middle" font-size="12" font-family="Helvetica" transform="rotate(35 539.09,452)">plaintext-requested-full-factorial-b5-rf3-isr3-msg1024-tps1000-batch16384-acksall-prod12-compnone-trial3</text>
<line x1="546.97" y1="91.08" x2="546.97" y2="91.08" stroke="#90caf9" stroke-width="2"/>
<circle cx="546.97" cy="91.08" r="4" fill="#0d47a1"/>
<text x="546.97" y="452" text-anchor="middle" font-size="12" font-family="Helvetica" transform="rotate(35 546.97,452)">plaintext-requested-full-factorial-b5-rf3-isr3-msg1024-tps1000-batch16384-acksall-prod6-complz4-trial1</text>
<line x1="554.85" y1="72.82" x2="554.85" y2="72.82" stroke="#90caf9" stroke-width="2"/>
<circle cx="554.85" cy="72.82" r="4" fill="#0d47a1"/>
<text x="554.85" y="452" text-anchor="middle" font-size="12" font-family="Helvetica" transform="rotate(35 554.85,452)">plaintext-requested-full-factorial-b5-rf3-isr3-msg1024-tps1000-batch16384-acksall-prod6-complz4-trial2</text>
<line x1="562.73" y1="70.79" x2="562.73" y2="70.79" stroke="#90caf9" stroke-width="2"/>
<circle cx="562.73" cy="70.79" r="4" fill="#0d47a1"/>
<text x="562.73" y="452" text-anchor="middle" font-size="12" font-family="Helvetica" transform="rotate(35 562.73,452)">plaintext-requested-full-factorial-b5-rf3-isr3-msg1024-tps1000-batch16384-acksall-prod6-complz4-trial3</text>
<line x1="570.61" y1="99.46" x2="570.61" y2="99.46" stroke="#90caf9" stroke-width="2"/>
<circle cx="570.61" cy="99.46" r="4" fill="#0d47a1"/>
<text x="570.61" y="452" text-anchor="middle" font-size="12" font-family="Helvetica" transform="rotate(35 570.61,452)">plaintext-requested-full-factorial-b5-rf3-isr3-msg1024-tps1000-batch16384-acksall-prod6-compnone-trial1</text>
<line x1="578.48" y1="99.57" x2="578.48" y2="99.57" stroke="#90caf9" stroke-width="2"/>
<circle cx="578.48" cy="99.57" r="4" fill="#0d47a1"/>
<text x="578.48" y="452" text-anchor="middle" font-size="12" font-family="Helvetica" transform="rotate(35 578.48,452)">plaintext-requested-full-factorial-b5-rf3-isr3-msg1024-tps1000-batch16384-acksall-prod6-compnone-trial2</text>
<line x1="586.36" y1="132.79" x2="586.36" y2="132.79" stroke="#90caf9" stroke-width="2"/>
<circle cx="586.36" cy="132.79" r="4" fill="#0d47a1"/>
<text x="586.36" y="452" text-anchor="middle" font-size="12" font-family="Helvetica" transform="rotate(35 586.36,452)">plaintext-requested-full-factorial-b5-rf3-isr3-msg1024-tps1000-batch16384-acksall-prod6-compnone-trial3</text>
<line x1="594.24" y1="66.80" x2="594.24" y2="66.80" stroke="#90caf9" stroke-width="2"/>
<circle cx="594.24" cy="66.80" r="4" fill="#0d47a1"/>
<text x="594.24" y="452" text-anchor="middle" font-size="12" font-family="Helvetica" transform="rotate(35 594.24,452)">plaintext-requested-full-factorial-b5-rf3-isr3-msg1024-tps1000-batch65536-acks1-prod1-complz4-trial1</text>
<line x1="602.12" y1="61.44" x2="602.12" y2="61.44" stroke="#90caf9" stroke-width="2"/>
<circle cx="602.12" cy="61.44" r="4" fill="#0d47a1"/>
<text x="602.12" y="452" text-anchor="middle" font-size="12" font-family="Helvetica" transform="rotate(35 602.12,452)">plaintext-requested-full-factorial-b5-rf3-isr3-msg1024-tps1000-batch65536-acks1-prod1-complz4-trial2</text>
<line x1="610.00" y1="58.76" x2="610.00" y2="58.76" stroke="#90caf9" stroke-width="2"/>
<circle cx="610.00" cy="58.76" r="4" fill="#0d47a1"/>
<text x="610.00" y="452" text-anchor="middle" font-size="12" font-family="Helvetica" transform="rotate(35 610.00,452)">plaintext-requested-full-factorial-b5-rf3-isr3-msg1024-tps1000-batch65536-acks1-prod1-complz4-trial3</text>
<line x1="617.88" y1="56.08" x2="617.88" y2="56.08" stroke="#90caf9" stroke-width="2"/>
<circle cx="617.88" cy="56.08" r="4" fill="#0d47a1"/>
<text x="617.88" y="452" text-anchor="middle" font-size="12" font-family="Helvetica" transform="rotate(35 617.88,452)">plaintext-requested-full-factorial-b5-rf3-isr3-msg1024-tps1000-batch65536-acks1-prod1-compnone-trial1</text>
<line x1="625.76" y1="66.80" x2="625.76" y2="66.80" stroke="#90caf9" stroke-width="2"/>
<circle cx="625.76" cy="66.80" r="4" fill="#0d47a1"/>
<text x="625.76" y="452" text-anchor="middle" font-size="12" font-family="Helvetica" transform="rotate(35 625.76,452)">plaintext-requested-full-factorial-b5-rf3-isr3-msg1024-tps1000-batch65536-acks1-prod1-compnone-trial2</text>
<line x1="633.64" y1="61.44" x2="633.64" y2="61.44" stroke="#90caf9" stroke-width="2"/>
<circle cx="633.64" cy="61.44" r="4" fill="#0d47a1"/>
<text x="633.64" y="452" text-anchor="middle" font-size="12" font-family="Helvetica" transform="rotate(35 633.64,452)">plaintext-requested-full-factorial-b5-rf3-isr3-msg1024-tps1000-batch65536-acks1-prod1-compnone-trial3</text>
<line x1="641.52" y1="119.33" x2="641.52" y2="119.33" stroke="#90caf9" stroke-width="2"/>
<circle cx="641.52" cy="119.33" r="4" fill="#0d47a1"/>
<text x="641.52" y="452" text-anchor="middle" font-size="12" font-family="Helvetica" transform="rotate(35 641.52,452)">plaintext-requested-full-factorial-b5-rf3-isr3-msg1024-tps1000-batch65536-acks1-prod12-complz4-trial1</text>
<line x1="649.39" y1="79.54" x2="649.39" y2="79.54" stroke="#90caf9" stroke-width="2"/>
<circle cx="649.39" cy="79.54" r="4" fill="#0d47a1"/>
<text x="649.39" y="452" text-anchor="middle" font-size="12" font-family="Helvetica" transform="rotate(35 649.39,452)">plaintext-requested-full-factorial-b5-rf3-isr3-msg1024-tps1000-batch65536-acks1-prod12-complz4-trial2</text>
<line x1="657.27" y1="165.92" x2="657.27" y2="165.92" stroke="#90caf9" stroke-width="2"/>
<circle cx="657.27" cy="165.92" r="4" fill="#0d47a1"/>
<text x="657.27" y="452" text-anchor="middle" font-size="12" font-family="Helvetica" transform="rotate(35 657.27,452)">plaintext-requested-full-factorial-b5-rf3-isr3-msg1024-tps1000-batch65536-acks1-prod12-complz4-trial3</text>
<line x1="665.15" y1="197.48" x2="665.15" y2="197.48" stroke="#90caf9" stroke-width="2"/>
<circle cx="665.15" cy="197.48" r="4" fill="#0d47a1"/>
<text x="665.15" y="452" text-anchor="middle" font-size="12" font-family="Helvetica" transform="rotate(35 665.15,452)">plaintext-requested-full-factorial-b5-rf3-isr3-msg1024-tps1000-batch65536-acks1-prod12-compnone-trial1</text>
<line x1="673.03" y1="320.29" x2="673.03" y2="320.29" stroke="#90caf9" stroke-width="2"/>
<circle cx="673.03" cy="320.29" r="4" fill="#0d47a1"/>
<text x="673.03" y="452" text-anchor="middle" font-size="12" font-family="Helvetica" transform="rotate(35 673.03,452)">plaintext-requested-full-factorial-b5-rf3-isr3-msg1024-tps1000-batch65536-acks1-prod12-compnone-trial2</text>
<line x1="680.91" y1="277.60" x2="680.91" y2="277.60" stroke="#90caf9" stroke-width="2"/>
<circle cx="680.91" cy="277.60" r="4" fill="#0d47a1"/>
<text x="680.91" y="452" text-anchor="middle" font-size="12" font-family="Helvetica" transform="rotate(35 680.91,452)">plaintext-requested-full-factorial-b5-rf3-isr3-msg1024-tps1000-batch65536-acks1-prod12-compnone-trial3</text>
<line x1="688.79" y1="61.10" x2="688.79" y2="61.10" stroke="#90caf9" stroke-width="2"/>
<circle cx="688.79" cy="61.10" r="4" fill="#0d47a1"/>
<text x="688.79" y="452" text-anchor="middle" font-size="12" font-family="Helvetica" transform="rotate(35 688.79,452)">plaintext-requested-full-factorial-b5-rf3-isr3-msg1024-tps1000-batch65536-acks1-prod6-complz4-trial1</text>
<line x1="696.67" y1="83.54" x2="696.67" y2="83.54" stroke="#90caf9" stroke-width="2"/>
<circle cx="696.67" cy="83.54" r="4" fill="#0d47a1"/>
<text x="696.67" y="452" text-anchor="middle" font-size="12" font-family="Helvetica" transform="rotate(35 696.67,452)">plaintext-requested-full-factorial-b5-rf3-isr3-msg1024-tps1000-batch65536-acks1-prod6-complz4-trial2</text>
<line x1="704.55" y1="86.96" x2="704.55" y2="86.96" stroke="#90caf9" stroke-width="2"/>
<circle cx="704.55" cy="86.96" r="4" fill="#0d47a1"/>
<text x="704.55" y="452" text-anchor="middle" font-size="12" font-family="Helvetica" transform="rotate(35 704.55,452)">plaintext-requested-full-factorial-b5-rf3-isr3-msg1024-tps1000-batch65536-acks1-prod6-complz4-trial3</text>
<line x1="712.42" y1="65.63" x2="712.42" y2="65.63" stroke="#90caf9" stroke-width="2"/>
<circle cx="712.42" cy="65.63" r="4" fill="#0d47a1"/>
<text x="712.42" y="452" text-anchor="middle" font-size="12" font-family="Helvetica" transform="rotate(35 712.42,452)">plaintext-requested-full-factorial-b5-rf3-isr3-msg1024-tps1000-batch65536-acks1-prod6-compnone-trial1</text>
<line x1="720.30" y1="75.35" x2="720.30" y2="75.35" stroke="#90caf9" stroke-width="2"/>
<circle cx="720.30" cy="75.35" r="4" fill="#0d47a1"/>
<text x="720.30" y="452" text-anchor="middle" font-size="12" font-family="Helvetica" transform="rotate(35 720.30,452)">plaintext-requested-full-factorial-b5-rf3-isr3-msg1024-tps1000-batch65536-acks1-prod6-compnone-trial2</text>
<line x1="728.18" y1="86.04" x2="728.18" y2="86.04" stroke="#90caf9" stroke-width="2"/>
<circle cx="728.18" cy="86.04" r="4" fill="#0d47a1"/>
<text x="728.18" y="452" text-anchor="middle" font-size="12" font-family="Helvetica" transform="rotate(35 728.18,452)">plaintext-requested-full-factorial-b5-rf3-isr3-msg1024-tps1000-batch65536-acks1-prod6-compnone-trial3</text>
<line x1="736.06" y1="53.40" x2="736.06" y2="53.40" stroke="#90caf9" stroke-width="2"/>
<circle cx="736.06" cy="53.40" r="4" fill="#0d47a1"/>
<text x="736.06" y="452" text-anchor="middle" font-size="12" font-family="Helvetica" transform="rotate(35 736.06,452)">plaintext-requested-full-factorial-b5-rf3-isr3-msg1024-tps1000-batch65536-acksall-prod1-complz4-trial1</text>
<line x1="743.94" y1="48.04" x2="743.94" y2="48.04" stroke="#90caf9" stroke-width="2"/>
<circle cx="743.94" cy="48.04" r="4" fill="#0d47a1"/>
<text x="743.94" y="452" text-anchor="middle" font-size="12" font-family="Helvetica" transform="rotate(35 743.94,452)">plaintext-requested-full-factorial-b5-rf3-isr3-msg1024-tps1000-batch65536-acksall-prod1-complz4-trial2</text>
<line x1="751.82" y1="40.00" x2="751.82" y2="40.00" stroke="#90caf9" stroke-width="2"/>
<circle cx="751.82" cy="40.00" r="4" fill="#0d47a1"/>
<text x="751.82" y="452" text-anchor="middle" font-size="12" font-family="Helvetica" transform="rotate(35 751.82,452)">plaintext-requested-full-factorial-b5-rf3-isr3-msg1024-tps1000-batch65536-acksall-prod1-complz4-trial3</text>
<line x1="759.70" y1="53.40" x2="759.70" y2="53.40" stroke="#90caf9" stroke-width="2"/>
<circle cx="759.70" cy="53.40" r="4" fill="#0d47a1"/>
<text x="759.70" y="452" text-anchor="middle" font-size="12" font-family="Helvetica" transform="rotate(35 759.70,452)">plaintext-requested-full-factorial-b5-rf3-isr3-msg1024-tps1000-batch65536-acksall-prod1-compnone-trial1</text>
<line x1="767.58" y1="56.08" x2="767.58" y2="56.08" stroke="#90caf9" stroke-width="2"/>
<circle cx="767.58" cy="56.08" r="4" fill="#0d47a1"/>
<text x="767.58" y="452" text-anchor="middle" font-size="12" font-family="Helvetica" transform="rotate(35 767.58,452)">plaintext-requested-full-factorial-b5-rf3-isr3-msg1024-tps1000-batch65536-acksall-prod1-compnone-trial2</text>
<line x1="775.45" y1="48.04" x2="775.45" y2="48.04" stroke="#90caf9" stroke-width="2"/>
<circle cx="775.45" cy="48.04" r="4" fill="#0d47a1"/>
<text x="775.45" y="452" text-anchor="middle" font-size="12" font-family="Helvetica" transform="rotate(35 775.45,452)">plaintext-requested-full-factorial-b5-rf3-isr3-msg1024-tps1000-batch65536-acksall-prod1-compnone-trial3</text>
<line x1="783.33" y1="166.18" x2="783.33" y2="166.18" stroke="#90caf9" stroke-width="2"/>
<circle cx="783.33" cy="166.18" r="4" fill="#0d47a1"/>
<text x="783.33" y="452" text-anchor="middle" font-size="12" font-family="Helvetica" transform="rotate(35 783.33,452)">plaintext-requested-full-factorial-b5-rf3-isr3-msg1024-tps1000-batch65536-acksall-prod12-complz4-trial1</text>
<line x1="791.21" y1="110.68" x2="791.21" y2="110.68" stroke="#90caf9" stroke-width="2"/>
<circle cx="791.21" cy="110.68" r="4" fill="#0d47a1"/>
<text x="791.21" y="452" text-anchor="middle" font-size="12" font-family="Helvetica" transform="rotate(35 791.21,452)">plaintext-requested-full-factorial-b5-rf3-isr3-msg1024-tps1000-batch65536-acksall-prod12-complz4-trial2</text>
<line x1="799.09" y1="211.73" x2="799.09" y2="211.73" stroke="#90caf9" stroke-width="2"/>
<circle cx="799.09" cy="211.73" r="4" fill="#0d47a1"/>
<text x="799.09" y="452" text-anchor="middle" font-size="12" font-family="Helvetica" transform="rotate(35 799.09,452)">plaintext-requested-full-factorial-b5-rf3-isr3-msg1024-tps1000-batch65536-acksall-prod12-complz4-trial3</text>
<line x1="806.97" y1="224.44" x2="806.97" y2="224.44" stroke="#90caf9" stroke-width="2"/>
<circle cx="806.97" cy="224.44" r="4" fill="#0d47a1"/>
<text x="806.97" y="452" text-anchor="middle" font-size="12" font-family="Helvetica" transform="rotate(35 806.97,452)">plaintext-requested-full-factorial-b5-rf3-isr3-msg1024-tps1000-batch65536-acksall-prod12-compnone-trial1</text>
<line x1="814.85" y1="308.06" x2="814.85" y2="308.06" stroke="#90caf9" stroke-width="2"/>
<circle cx="814.85" cy="308.06" r="4" fill="#0d47a1"/>
<text x="814.85" y="452" text-anchor="middle" font-size="12" font-family="Helvetica" transform="rotate(35 814.85,452)">plaintext-requested-full-factorial-b5-rf3-isr3-msg1024-tps1000-batch65536-acksall-prod12-compnone-trial2</text>
<line x1="822.73" y1="243.61" x2="822.73" y2="243.61" stroke="#90caf9" stroke-width="2"/>
<circle cx="822.73" cy="243.61" r="4" fill="#0d47a1"/>
<text x="822.73" y="452" text-anchor="middle" font-size="12" font-family="Helvetica" transform="rotate(35 822.73,452)">plaintext-requested-full-factorial-b5-rf3-isr3-msg1024-tps1000-batch65536-acksall-prod12-compnone-trial3</text>
<line x1="830.61" y1="133.34" x2="830.61" y2="133.34" stroke="#90caf9" stroke-width="2"/>
<circle cx="830.61" cy="133.34" r="4" fill="#0d47a1"/>
<text x="830.61" y="452" text-anchor="middle" font-size="12" font-family="Helvetica" transform="rotate(35 830.61,452)">plaintext-requested-full-factorial-b5-rf3-isr3-msg1024-tps1000-batch65536-acksall-prod6-complz4-trial1</text>
<line x1="838.48" y1="83.91" x2="838.48" y2="83.91" stroke="#90caf9" stroke-width="2"/>
<circle cx="838.48" cy="83.91" r="4" fill="#0d47a1"/>
<text x="838.48" y="452" text-anchor="middle" font-size="12" font-family="Helvetica" transform="rotate(35 838.48,452)">plaintext-requested-full-factorial-b5-rf3-isr3-msg1024-tps1000-batch65536-acksall-prod6-complz4-trial2</text>
<line x1="846.36" y1="96.58" x2="846.36" y2="96.58" stroke="#90caf9" stroke-width="2"/>
<circle cx="846.36" cy="96.58" r="4" fill="#0d47a1"/>
<text x="846.36" y="452" text-anchor="middle" font-size="12" font-family="Helvetica" transform="rotate(35 846.36,452)">plaintext-requested-full-factorial-b5-rf3-isr3-msg1024-tps1000-batch65536-acksall-prod6-complz4-trial3</text>
<line x1="854.24" y1="116.40" x2="854.24" y2="116.40" stroke="#90caf9" stroke-width="2"/>
<circle cx="854.24" cy="116.40" r="4" fill="#0d47a1"/>
<text x="854.24" y="452" text-anchor="middle" font-size="12" font-family="Helvetica" transform="rotate(35 854.24,452)">plaintext-requested-full-factorial-b5-rf3-isr3-msg1024-tps1000-batch65536-acksall-prod6-compnone-trial1</text>
<line x1="862.12" y1="76.41" x2="862.12" y2="76.41" stroke="#90caf9" stroke-width="2"/>
<circle cx="862.12" cy="76.41" r="4" fill="#0d47a1"/>
<text x="862.12" y="452" text-anchor="middle" font-size="12" font-family="Helvetica" transform="rotate(35 862.12,452)">plaintext-requested-full-factorial-b5-rf3-isr3-msg1024-tps1000-batch65536-acksall-prod6-compnone-trial2</text>
<line x1="870.00" y1="86.69" x2="870.00" y2="86.69" stroke="#90caf9" stroke-width="2"/>
<circle cx="870.00" cy="86.69" r="4" fill="#0d47a1"/>
<text x="870.00" y="452" text-anchor="middle" font-size="12" font-family="Helvetica" transform="rotate(35 870.00,452)">plaintext-requested-full-factorial-b5-rf3-isr3-msg1024-tps1000-batch65536-acksall-prod6-compnone-trial3</text>
<text x="450" y="500" text-anchor="middle" font-size="14" font-family="Helvetica">Sweep category</text>
<text x="20" y="260" text-anchor="middle" font-size="14" font-family="Helvetica" transform="rotate(-90 20,260)">Mean Throughput (records/sec)</text>
</svg>
