<svg xmlns="http://www.w3.org/2000/svg" width="900" height="520" viewBox="0 0 900 520">
<rect width="100%" height="100%" fill="white"/>
<text x="450" y="24" text-anchor="middle" font-size="20" font-family="Helvetica">Mean Average Latency (ms)</text>
<line x1="90" y1="430" x2="870" y2="430" stroke="#333" stroke-width="2"/>
<line x1="90" y1="40" x2="90" y2="430" stroke="#333" stroke-width="2"/>
<line x1="90" y1="430.00" x2="870" y2="430.00" stroke="#e0e0e0" stroke-width="1"/>
<text x="80" y="434.00" text-anchor="end" font-size="12" font-family="Helvetica">3.98</text>
<line x1="90" y1="332.50" x2="870" y2="332.50" stroke="#e0e0e0" stroke-width="1"/>
<text x="80" y="336.50" text-anchor="end" font-size="12" font-family="Helvetica">7.95</text>
<line x1="90" y1="235.00" x2="870" y2="235.00" stroke="#e0e0e0" stroke-width="1"/>
<text x="80" y="239.00" text-anchor="end" font-size="12" font-family="Helvetica">11.92</text>
<line x1="90" y1="137.50" x2="870" y2="137.50" stroke="#e0e0e0" stroke-width="1"/>
<text x="80" y="141.50" text-anchor="end" font-size="12" font-family="Helvetica">15.88</text>
<line x1="90" y1="40.00" x2="870" y2="40.00" stroke="#e0e0e0" stroke-width="1"/>
<text x="80" y="44.00" text-anchor="end" font-size="12" font-family="Helvetica">19.85</text>
<polyline fill="none" stroke="#1565c0" stroke-width="3" points="90.00,423.86 160.91,425.82 231.82,430.00 302.73,428.03 373.64,427.30 444.55,428.77 515.45,40.00 586.36,81.49 657.27,58.31 728.18,103.85 799.09,95.74 870.00,103.72"/>
<line x1="90.00" y1="423.86" x2="90.00" y2="423.86" stroke="#90caf9" stroke-width="2"/>
<circle cx="90.00" cy="423.86" r="4" fill="#0d47a1"/>
<text x="90.00" y="452" text-anchor="middle" font-size="12" font-family="Helvetica" transform="rotate(35 90.00,452)">plaintext-requested-full-factorial-b5-rf3-isr3-msg1024-tps1000-batch16384-acks1-prod1-complz4-trial1</text>
<line x1="160.91" y1="425.82" x2="160.91" y2="425.82" stroke="#90caf9" stroke-width="2"/>
<circle cx="160.91" cy="425.82" r="4" fill="#0d47a1"/>
<text x="160.91" y="452" text-anchor="middle" font-size="12" font-family="Helvetica" transform="rotate(35 160.91,452)">plaintext-requested-full-factorial-b5-rf3-isr3-msg1024-tps1000-batch16384-acks1-prod1-complz4-trial2</text>
<line x1="231.82" y1="430.00" x2="231.82" y2="430.00" stroke="#90caf9" stroke-width="2"/>
<circle cx="231.82" cy="430.00" r="4" fill="#0d47a1"/>
<text x="231.82" y="452" text-anchor="middle" font-size="12" font-family="Helvetica" transform="rotate(35 231.82,452)">plaintext-requested-full-factorial-b5-rf3-isr3-msg1024-tps1000-batch16384-acks1-prod1-complz4-trial3</text>
<line x1="302.73" y1="428.03" x2="302.73" y2="428.03" stroke="#90caf9" stroke-width="2"/>
<circle cx="302.73" cy="428.03" r="4" fill="#0d47a1"/>
<text x="302.73" y="452" text-anchor="middle" font-size="12" font-family="Helvetica" transform="rotate(35 302.73,452)">plaintext-requested-full-factorial-b5-rf3-isr3-msg1024-tps1000-batch16384-acks1-prod1-compnone-trial1</text>
<line x1="373.64" y1="427.30" x2="373.64" y2="427.30" stroke="#90caf9" stroke-width="2"/>
<circle cx="373.64" cy="427.30" r="4" fill="#0d47a1"/>
<text x="373.64" y="452" text-anchor="middle" font-size="12" font-family="Helvetica" transform="rotate(35 373.64,452)">plaintext-requested-full-factorial-b5-rf3-isr3-msg1024-tps1000-batch16384-acks1-prod1-compnone-trial2</text>
<line x1="444.55" y1="428.77" x2="444.55" y2="428.77" stroke="#90caf9" stroke-width="2"/>
<circle cx="444.55" cy="428.77" r="4" fill="#0d47a1"/>
<text x="444.55" y="452" text-anchor="middle" font-size="12" font-family="Helvetica" transform="rotate(35 444.55,452)">plaintext-requested-full-factorial-b5-rf3-isr3-msg1024-tps1000-batch16384-acks1-prod1-compnone-trial3</text>
<line x1="515.45" y1="40.00" x2="515.45" y2="40.00" stroke="#90caf9" stroke-width="2"/>
<circle cx="515.45" cy="40.00" r="4" fill="#0d47a1"/>
<text x="515.45" y="452" text-anchor="middle" font-size="12" font-family="Helvetica" transform="rotate(35 515.45,452)">plaintext-requested-full-factorial-b5-rf3-isr3-msg1024-tps1000-batch16384-acks1-prod6-complz4-trial1</text>
<line x1="586.36" y1="81.49" x2="586.36" y2="81.49" stroke="#90caf9" stroke-width="2"/>
<circle cx="586.36" cy="81.49" r="4" fill="#0d47a1"/>
<text x="586.36" y="452" text-anchor="middle" font-size="12" font-family="Helvetica" transform="rotate(35 586.36,452)">plaintext-requested-full-factorial-b5-rf3-isr3-msg1024-tps1000-batch16384-acks1-prod6-complz4-trial2</text>
<line x1="657.27" y1="58.31" x2="657.27" y2="58.31" stroke="#90caf9" stroke-width="2"/>
<circle cx="657.27" cy="58.31" r="4" fill="#0d47a1"/>
<text x="657.27" y="452" text-anchor="middle" font-size="12" font-family="Helvetica" transform="rotate(35 657.27,452)">plaintext-requested-full-factorial-b5-rf3-isr3-msg1024-tps1000-batch16384-acks1-prod6-complz4-trial3</text>
<line x1="728.18" y1="103.85" x2="728.18" y2="103.85" stroke="#90caf9" stroke-width="2"/>
<circle cx="728.18" cy="103.85" r="4" fill="#0d47a1"/>
<text x="728.18" y="452" text-anchor="middle" font-size="12" font-family="Helvetica" transform="rotate(35 728.18,452)">plaintext-requested-full-factorial-b5-rf3-isr3-msg1024-tps1000-batch16384-acks1-prod6-compnone-trial1</text>
<line x1="799.09" y1="95.74" x2="799.09" y2="95.74" stroke="#90caf9" stroke-width="2"/>
<circle cx="799.09" cy="95.74" r="4" fill="#0d47a1"/>
<text x="799.09" y="452" text-anchor="middle" font-size="12" font-family="Helvetica" transform="rotate(35 799.09,452)">plaintext-requested-full-factorial-b5-rf3-isr3-msg1024-tps1000-batch16384-acks1-prod6-compnone-trial2</text>
<line x1="870.00" y1="103.72" x2="870.00" y2="103.72" stroke="#90caf9" stroke-width="2"/>
<circle cx="870.00" cy="103.72" r="4" fill="#0d47a1"/>
<text x="870.00" y="452" text-anchor="middle" font-size="12" font-family="Helvetica" transform="rotate(35 870.00,452)">plaintext-requested-full-factorial-b5-rf3-isr3-msg1024-tps1000-batch16384-acks1-prod6-compnone-trial3</text>
<text x="450" y="500" text-anchor="middle" font-size="14" font-family="Helvetica">Sweep category</text>
<text x="20" y="260" text-anchor="middle" font-size="14" font-family="Helvetica" transform="rotate(-90 20,260)">Mean Average Latency (ms)</text>
</svg>
