<svg xmlns="http://www.w3.org/2000/svg" width="900" height="520" viewBox="0 0 900 520">
<rect width="100%" height="100%" fill="white"/>
<text x="450" y="24" text-anchor="middle" font-size="20" font-family="Helvetica">Mean Max Latency (ms)</text>
<line x1="90" y1="430" x2="870" y2="430" stroke="#333" stroke-width="2"/>
<line x1="90" y1="40" x2="90" y2="430" stroke="#333" stroke-width="2"/>
<line x1="90" y1="430.00" x2="870" y2="430.00" stroke="#e0e0e0" stroke-width="1"/>
<text x="80" y="434.00" text-anchor="end" font-size="12" font-family="Helvetica">493.00</text>
<line x1="90" y1="332.50" x2="870" y2="332.50" stroke="#e0e0e0" stroke-width="1"/>
<text x="80" y="336.50" text-anchor="end" font-size="12" font-family="Helvetica">1325.00</text>
<line x1="90" y1="235.00" x2="870" y2="235.00" stroke="#e0e0e0" stroke-width="1"/>
<text x="80" y="239.00" text-anchor="end" font-size="12" font-family="Helvetica">2157.00</text>
<line x1="90" y1="137.50" x2="870" y2="137.50" stroke="#e0e0e0" stroke-width="1"/>
<text x="80" y="141.50" text-anchor="end" font-size="12" font-family="Helvetica">2989.00</text>
<line x1="90" y1="40.00" x2="870" y2="40.00" stroke="#e0e0e0" stroke-width="1"/>
<text x="80" y="44.00" text-anchor="end" font-size="12" font-family="Helvetica">3821.00</text>
<polyline fill="none" stroke="#1565c0" stroke-width="3" points="90.00,425.43 160.91,424.84 231.82,428.01 302.73,429.53 373.64,426.48 444.55,430.00 515.45,72.93 586.36,79.02 657.27,40.00 728.18,110.66 799.09,86.41 870.00,93.32"/>
<line x1="90.00" y1="425.43" x2="90.00" y2="425.43" stroke="#90caf9" stroke-width="2"/>
<circle cx="90.00" cy="425.43" r="4" fill="#0d47a1"/>
<text x="90.00" y="452" text-anchor="middle" font-size="12" font-family="Helvetica" transform="rotate(35 90.00,452)">plaintext-requested-full-factorial-b5-rf3-isr3-msg1024-tps1000-batch16384-acks1-prod1-complz4-trial1</text>
<line x1="160.91" y1="424.84" x2="160.91" y2="424.84" stroke="#90caf9" stroke-width="2"/>
<circle cx="160.91" cy="424.84" r="4" fill="#0d47a1"/>
<text x="160.91" y="452" text-anchor="middle" font-size="12" font-family="Helvetica" transform="rotate(35 160.91,452)">plaintext-requested-full-factorial-b5-rf3-isr3-msg1024-tps1000-batch16384-acks1-prod1-complz4-trial2</text>
<line x1="231.82" y1="428.01" x2="231.82" y2="428.01" stroke="#90caf9" stroke-width="2"/>
<circle cx="231.82" cy="428.01" r="4" fill="#0d47a1"/>
<text x="231.82" y="452" text-anchor="middle" font-size="12" font-family="Helvetica" transform="rotate(35 231.82,452)">plaintext-requested-full-factorial-b5-rf3-isr3-msg1024-tps1000-batch16384-acks1-prod1-complz4-trial3</text>
<line x1="302.73" y1="429.53" x2="302.73" y2="429.53" stroke="#90caf9" stroke-width="2"/>
<circle cx="302.73" cy="429.53" r="4" fill="#0d47a1"/>
<text x="302.73" y="452" text-anchor="middle" font-size="12" font-family="Helvetica" transform="rotate(35 302.73,452)">plaintext-requested-full-factorial-b5-rf3-isr3-msg1024-tps1000-batch16384-acks1-prod1-compnone-trial1</text>
<line x1="373.64" y1="426.48" x2="373.64" y2="426.48" stroke="#90caf9" stroke-width="2"/>
<circle cx="373.64" cy="426.48" r="4" fill="#0d47a1"/>
<text x="373.64" y="452" text-anchor="middle" font-size="12" font-family="Helvetica" transform="rotate(35 373.64,452)">plaintext-requested-full-factorial-b5-rf3-isr3-msg1024-tps1000-batch16384-acks1-prod1-compnone-trial2</text>
<line x1="444.55" y1="430.00" x2="444.55" y2="430.00" stroke="#90caf9" stroke-width="2"/>
<circle cx="444.55" cy="430.00" r="4" fill="#0d47a1"/>
<text x="444.55" y="452" text-anchor="middle" font-size="12" font-family="Helvetica" transform="rotate(35 444.55,452)">plaintext-requested-full-factorial-b5-rf3-isr3-msg1024-tps1000-batch16384-acks1-prod1-compnone-trial3</text>
<line x1="515.45" y1="72.93" x2="515.45" y2="72.93" stroke="#90caf9" stroke-width="2"/>
<circle cx="515.45" cy="72.93" r="4" fill="#0d47a1"/>
<text x="515.45" y="452" text-anchor="middle" font-size="12" font-family="Helvetica" transform="rotate(35 515.45,452)">plaintext-requested-full-factorial-b5-rf3-isr3-msg1024-tps1000-batch16384-acks1-prod6-complz4-trial1</text>
<line x1="586.36" y1="79.02" x2="586.36" y2="79.02" stroke="#90caf9" stroke-width="2"/>
<circle cx="586.36" cy="79.02" r="4" fill="#0d47a1"/>
<text x="586.36" y="452" text-anchor="middle" font-size="12" font-family="Helvetica" transform="rotate(35 586.36,452)">plaintext-requested-full-factorial-b5-rf3-isr3-msg1024-tps1000-batch16384-acks1-prod6-complz4-trial2</text>
<line x1="657.27" y1="40.00" x2="657.27" y2="40.00" stroke="#90caf9" stroke-width="2"/>
<circle cx="657.27" cy="40.00" r="4" fill="#0d47a1"/>
<text x="657.27" y="452" text-anchor="middle" font-size="12" font-family="Helvetica" transform="rotate(35 657.27,452)">plaintext-requested-full-factorial-b5-rf3-isr3-msg1024-tps1000-batch16384-acks1-prod6-complz4-trial3</text>
<line x1="728.18" y1="110.66" x2="728.18" y2="110.66" stroke="#90caf9" stroke-width="2"/>
<circle cx="728.18" cy="110.66" r="4" fill="#0d47a1"/>
<text x="728.18" y="452" text-anchor="middle" font-size="12" font-family="Helvetica" transform="rotate(35 728.18,452)">plaintext-requested-full-factorial-b5-rf3-isr3-msg1024-tps1000-batch16384-acks1-prod6-compnone-trial1</text>
<line x1="799.09" y1="86.41" x2="799.09" y2="86.41" stroke="#90caf9" stroke-width="2"/>
<circle cx="799.09" cy="86.41" r="4" fill="#0d47a1"/>
<text x="799.09" y="452" text-anchor="middle" font-size="12" font-family="Helvetica" transform="rotate(35 799.09,452)">plaintext-requested-full-factorial-b5-rf3-isr3-msg1024-tps1000-batch16384-acks1-prod6-compnone-trial2</text>
<line x1="870.00" y1="93.32" x2="870.00" y2="93.32" stroke="#90caf9" stroke-width="2"/>
<circle cx="870.00" cy="93.32" r="4" fill="#0d47a1"/>
<text x="870.00" y="452" text-anchor="middle" font-size="12" font-family="Helvetica" transform="rotate(35 870.00,452)">plaintext-requested-full-factorial-b5-rf3-isr3-msg1024-tps1000-batch16384-acks1-prod6-compnone-trial3</text>
<text x="450" y="500" text-anchor="middle" font-size="14" font-family="Helvetica">Sweep category</text>
<text x="20" y="260" text-anchor="middle" font-size="14" font-family="Helvetica" transform="rotate(-90 20,260)">Mean Max Latency (ms)</text>
</svg>
